<svg xmlns="http://www.w3.org/2000/svg" xmlns:xlink="http://www.w3.org/1999/xlink" version="1.1" style="enable-background:new 0 0 816 218;" xml:space="preserve" width="816" height="218"><rect id="backgroundrect" width="100%" height="100%" x="0" y="0" fill="none" stroke="none"/>
<style type="text/css">
	.st0{fill:none;stroke:#FFFFFF;stroke-miterlimit:10;}
	.st1{fill:none;stroke:url(#top-line_1_);stroke-miterlimit:10;}
	.st2{fill:none;stroke:url(#middle-line_1_);stroke-miterlimit:10;}
	.st3{fill:none;stroke:url(#bottom-line_1_);stroke-miterlimit:10;}
	.st4{fill:url(#SVGID_1_);}
	.st5{fill:url(#circle2_1_);}
	.st6{fill:url(#SVGID_2_);}
	.st7{fill:url(#SVGID_3_);}
	.st8{fill:#0077B5;}
	.st9{fill:#FFFFFF;}
	.st10{fill:#999999;}
	.st11{fill:#181616;}
	.st12{fill:#80B23F;}
	.st13{fill:none;stroke:#FFFFFF;stroke-width:2;stroke-miterlimit:10;}
	.st14{fill:#BCBBBB;}
	.st15{fill:#F48024;}
	.st16{fill:none;}
	.st17{fill:#343838;}
	.st18{fill:url(#SVGID_4_);}
	.st19{fill:url(#SVGID_5_);}
	.st20{fill:#EF5A24;}
	.st21{fill:url(#SVGID_6_);}
	.st22{fill:url(#SVGID_7_);}
	.st23{fill:url(#SVGID_8_);}
	.st24{fill:url(#SVGID_9_);}
	.st25{fill:url(#SVGID_10_);}
	.st26{fill:url(#SVGID_11_);}
	.st27{fill:url(#SVGID_12_);}
	.st28{fill:url(#SVGID_13_);}
	.st29{fill:url(#SVGID_14_);}
	.st30{fill:url(#SVGID_15_);}
	.st31{fill:#603F17;}
</style>
<title>ill</title>


<g class="currentLayer"><title>Layer 1</title><g id="svg_1" class="">
	<g id="HEOR">
		<g id="svg_2">
			<path id="bottom-line-white" class="st0" d="M89,183c104.9,0,151.6-111.7,266.6-111.4c10.4,0.1,20.9,0.2,31.3,0.3"/>
			<path id="middle-line-white" class="st0" d="M129.1,96.9c66.7,0,80.5-10.2,119.7-17.6c39.5-7.5,73.1-7.5,106.8-7.6     c13.2,0,24.3,0.2,32,0.5"/>
			<path id="top-line-white" class="st0" d="M179.2,25.9c70.1,0,73.9,20.3,103.1,33.8c20.7,9.6,40.7,9.9,73.3,11.9     c13.3,0.8,24.4,1,32,1"/>
			
				<linearGradient id="top-line_1_" gradientUnits="userSpaceOnUse" x1="179.1999969482422" y1="307.25" x2="355.6012878417969" y2="307.25" gradientTransform="matrix(1 0 0 -1 0 356)">
				<stop offset="0" style="stop-color:#F9AE3B"/>
				<stop offset="0.86" style="stop-color:#FF911E"/>
			</linearGradient>
			<path id="top-line" class="st1" d="M179.2,25.9c104.9,0,61.4,45.4,176.4,45.7"/>
			
				<linearGradient id="middle-line_1_" gradientUnits="userSpaceOnUse" x1="129.10000610351562" y1="271.70001220703125" x2="355.6000061035156" y2="271.70001220703125" gradientTransform="matrix(1 0 0 -1 0 356)">
				<stop offset="0" style="stop-color:#F9AE3B"/>
				<stop offset="0.86" style="stop-color:#FF911E"/>
			</linearGradient>
			<path id="middle-line" class="st2" d="M129.1,96.9c104.9,0,79-25.2,226.5-25.2"/>
			
				<linearGradient id="bottom-line_1_" gradientUnits="userSpaceOnUse" x1="89" y1="228.70030212402344" x2="355.6012878417969" y2="228.70030212402344" gradientTransform="matrix(1 0 0 -1 0 356)">
				<stop offset="0" style="stop-color:#F9AE3B"/>
				<stop offset="0.86" style="stop-color:#FF911E"/>
			</linearGradient>
			<path id="bottom-line" class="st3" d="M89,183c104.9,0,151.6-111.7,266.6-111.4"/>
			<g id="svg_3">

				<animateMotion accumulate="none" additive="replace" calcMode="paced" dur="6s" fill="remove" repeatCount="indefinite" restart="always" transform="translate(-209.60000610351562,-27.5) ">
					<mpath xmlns:xlink="http://www.w3.org/1999/xlink" xlink:href="#top-line-white"/>
				</animateMotion>

				<linearGradient id="SVGID_1_" gradientUnits="userSpaceOnUse" x1="204.64999389648438" y1="328.5" x2="214.64999389648438" y2="328.5" gradientTransform="matrix(1 0 0 -1 0 356)" transform="translate(-209.60000610351562,-27.5) ">
					<stop offset="0" style="stop-color:#F9AE3B"/>
					<stop offset="0.86" style="stop-color:#FF911E"/>
				</linearGradient>
				<circle class="st4" cx="0" cy="0" r="5" id="svg_4"/>
			</g>
			<g id="svg_5">

				<animateMotion accumulate="none" additive="replace" begin="2s" calcMode="paced" dur="5s" fill="remove" repeatCount="indefinite" restart="always" transform="translate(-171.60000610351562,-94.5999984741211) ">
					<mpath xmlns:xlink="http://www.w3.org/1999/xlink" xlink:href="#middle-line-white"/>
				</animateMotion>

				<linearGradient id="circle2_1_" gradientUnits="userSpaceOnUse" x1="166.64999389648438" y1="261.3999938964844" x2="176.64999389648438" y2="261.3999938964844" gradientTransform="matrix(1 0 0 -1 0 356)" transform="translate(-171.60000610351562,-94.5999984741211) ">
					<stop offset="0" style="stop-color:#F9AE3B"/>
					<stop offset="0.86" style="stop-color:#FF911E"/>
				</linearGradient>
				<circle id="circle2" class="st5" cx="0" cy="0" r="5"/>
			</g>
			<g id="svg_6">

				<animateMotion accumulate="none" additive="replace" begin="5s" calcMode="paced" dur="5s" fill="remove" repeatCount="indefinite" restart="always" transform="translate(-263.6000061035156,-76.5999984741211) ">
					<mpath xmlns:xlink="http://www.w3.org/1999/xlink" xlink:href="#middle-line-white"/>
				</animateMotion>

				<linearGradient id="SVGID_2_" gradientUnits="userSpaceOnUse" x1="258.6499938964844" y1="279.3999938964844" x2="268.6499938964844" y2="279.3999938964844" gradientTransform="matrix(1 0 0 -1 0 356)" transform="translate(-263.6000061035156,-76.5999984741211) ">
					<stop offset="0" style="stop-color:#F9AE3B"/>
					<stop offset="0.86" style="stop-color:#FF911E"/>
				</linearGradient>
				<circle class="st6" cx="0" cy="0" r="5" id="svg_7"/>
			</g>
			<g id="svg_8">

				<animateMotion accumulate="none" additive="replace" begin="1s" calcMode="paced" dur="7s" fill="remove" repeatCount="indefinite" restart="always" transform="translate(-200.60000610351562,-139.60000610351562) ">
					<mpath xmlns:xlink="http://www.w3.org/1999/xlink" xlink:href="#bottom-line-white"/>
				</animateMotion>

				<linearGradient id="SVGID_3_" gradientUnits="userSpaceOnUse" x1="195.64999389648438" y1="216.39999389648438" x2="205.64999389648438" y2="216.39999389648438" gradientTransform="matrix(1 0 0 -1 0 356)" transform="translate(-200.60000610351562,-139.60000610351562) ">
					<stop offset="0" style="stop-color:#F9AE3B"/>
					<stop offset="0.86" style="stop-color:#FF911E"/>
				</linearGradient>
				<circle class="st7" cx="0" cy="0" r="5" id="svg_9"/>
			</g>
			<g id="svg_10">
				<g id="svg_11">
					<path class="st8" d="M167.7,13h-25.8c-1.2,0-2.2,1-2.2,2.2v25.9c0,1.2,1,2.2,2.2,2.2h25.8c1.2,0,2.3-0.9,2.3-2.1l0,0v-26       C170,14,169,13,167.7,13L167.7,13z" id="svg_12"/>
					<path class="st9" d="M144.1,24.4h4.5v14.5h-4.5V24.4z M146.4,17.2c1.4,0,2.6,1.2,2.6,2.6s-1.2,2.6-2.6,2.6s-2.6-1.2-2.6-2.6       S145,17.2,146.4,17.2L146.4,17.2" id="svg_13"/>
					<path class="st9" d="M151.5,24.4h4.3v2h0.1c0.9-1.5,2.5-2.4,4.2-2.4c4.6,0,5.4,3,5.4,6.9v7.9H161v-7c0-1.7,0-3.8-2.3-3.8       s-2.7,1.8-2.7,3.7v7.2h-4.5V24.4L151.5,24.4z" id="svg_14"/>
				</g>
				<g id="svg_15">
					<polygon class="st10" points="172,36.7 172.7,36.7 172.7,38.8 173.1,38.8 173.1,36.7 173.7,36.7 173.7,36.3 172,36.3      " id="svg_16"/>
					<polygon class="st10" points="176.2,36.3 175.5,38.1 174.7,36.3 174.2,36.3 174.2,38.8 174.6,38.8 174.6,36.9 175.3,38.8        175.6,38.8 176.4,36.9 176.4,38.8 176.7,38.8 176.7,36.3      " id="svg_17"/>
				</g>
			</g>
			<g id="svg_18">
				<path class="st11" d="M82.6,63c-13.9,0-25.1,11.3-25.1,25.1c0,10.8,6.9,20.3,17.1,23.8c0.6,0.2,1.4-0.1,1.6-0.7      c0.1-0.2,0.1-0.3,0.1-0.5c0-0.6,0-2.2,0-4.3c-7,1.5-8.4-3.4-8.4-3.4c-1.1-2.9-2.8-3.7-2.8-3.7c-2.3-1.6,0.2-1.5,0.2-1.5      c1.6,0.2,3,1.2,3.8,2.6c2.2,3.8,5.9,2.7,7.3,2.1c0.1-1.3,0.6-2.5,1.5-3.4c-5.6-0.6-11.4-2.8-11.4-12.4c0-2.5,0.9-4.9,2.6-6.7      c-0.8-2.2-0.7-4.5,0.2-6.6c0,0,2.1-0.7,6.9,2.6c4.1-1.1,8.4-1.1,12.6,0c4.8-3.2,6.9-2.6,6.9-2.6c0.9,2.1,1,4.5,0.3,6.6      c1.7,1.8,2.6,4.2,2.6,6.7c0,9.6-5.9,11.8-11.5,12.4c1.2,1.2,1.8,2.9,1.7,4.7c0,3.3,0,6.1,0,6.9c0,0.7,0.5,1.3,1.2,1.3      c0.2,0,0.3,0,0.5-0.1c13.1-4.5,20.1-18.8,15.6-31.9C102.8,69.9,93.3,63.1,82.6,63z" id="svg_19"/>
				<circle class="st12" cx="105.0999984741211" cy="106.0999984741211" r="11.5" id="svg_20"/>
				<path class="st13" d="M100.1,105.2c0,0,3.1,5.3,4,5s6.7-9.7,6.7-9.7" id="svg_21"/>
			</g>
			<g id="svg_22">
				<polygon class="st14" points="50.3,186.6 50.3,171.3 55.4,171.3 55.4,191.7 9.5,191.7 9.5,171.3 14.6,171.3 14.6,186.6     " id="svg_23"/>
				<path class="st15" d="M20.2,169.9l25,5.2l1-5l-25-5.2L20.2,169.9z M23.5,157.9l23.1,10.8l2.2-4.6l-23.1-10.8L23.5,157.9z       M29.9,146.6l19.6,16.3l3.3-3.9l-19.6-16.3L29.9,146.6z M42.5,134.5l-4.1,3L53.7,158l4.1-3L42.5,134.5z M19.7,181.5h25.5v-5.1      H19.7V181.5z" id="svg_24"/>
				<circle class="st12" cx="57.29999923706055" cy="190.89999389648438" r="11.5" id="svg_25"/>
				<path class="st13" d="M52.3,190c0,0,3.1,5.3,4,5s6.7-9.7,6.7-9.7" id="svg_26"/>
			</g>
			<circle class="st12" cx="173.5" cy="42" r="11.5" id="svg_27"/>
			<path class="st13" d="M168.5,41.1c0,0,3.1,5.3,4,5s6.7-9.7,6.7-9.7" id="svg_28"/>
			<g id="svg_29">
				<g id="svg_30">
					<g id="svg_31">
						<path class="st16" d="M720.1,71.2c2.1-3.9,4-8,5.6-12.2c0.6,1.1,1.4,2,2.4,2.8c2.5,1.2,5.8,1,7.8,2.8c1.2,1.2,2.8,0.6,4.3,1.6        c-5.2,1-8.4,6.6-12,9.3c-2.5,6-11.1,6.1-11.1,6.1l-2.5,0.5C714.2,75.5,720.1,71.2,720.1,71.2z" id="svg_32"/>
						<path class="st16" d="M670.9,61.8c0.6-0.5,1.2-1.1,1.7-1.8l-1.3,2.6L682.8,81c0,0,0.3,0.4,0.7,0.8l-1.7-0.4        c0,0-8.5-0.1-11.1-6.1c-3.6-2.7-6.8-8.3-12-9.3c1.5-0.9,3.1-0.3,4.3-1.6C665.1,62.7,668.3,62.9,670.9,61.8z" id="svg_33"/>
						<path class="st17" d="M653,67c0.4,1.3,0.6,6.4,4.2,9.3s7.6,4,10.8,6.1c2.2,1.4,6.2,4.8,8.7,6.9c2.2,1.2,4.2,2.1,4.4,2.4        l0.1,0.1l0.8-0.2l1-0.3h0.1c0,0-0.6,9.2,0,11.4s3.6,4.9,6.3,5.7c0,0-5.1-0.4-6.6-1.3s-4.9,6.1-6.1,13.5s1,19.3,1.7,21.4        s-0.2,8.1-1.1,9.7s-7.4,14.2-7,18.2s1.5,11,7,12.7c0,0-3.2,0.6-6.6-4c0,0,4,17.1,2.8,21.4s-1.3,6.8-4,7.4s-3,0.6-2.1,2.3        c0,0.1,0.1,0.1,0.1,0.2c0.6,0.3,1.2,0.5,1.9,0.4c1.9-0.3,2.7,0,5.6,0.8s6.6-1,6.5-2.7c-0.1-1.1-1.9-4.6-1.6-7.9        c0.2-2.5-0.2-2.5-0.7-4.3c-0.8-2.9,3.1-17.1,6.8-22.3s2.4-16.9,2.4-16.9c-0.2-3.2,0.9-12,2-14.9c3.2-8.4,5.4-17.1,6.5-26        c0.2-2.3,0.8-4.6,1.6-6.8l1-0.4l1,0.4c0,0,0.7,0.9,1.7,6.5c0.8,4.5,0.2,12.9,5.3,26.3c1.5,3.8,1.2,9.3,1,12.3        c-0.2,1-0.4,2-0.5,3.1c0,0,1.5,10.5,4.8,15.9s6.3,19.8,5.4,22.6c-0.6,1.8-1,1.8-0.9,4.3c0.1,3.3-2,6.7-2.1,7.8        c-0.2,1.7,3.4,3.7,6.3,3.1s3.7-0.9,5.6-0.4s4.3-2,4.3-2c-0.3-2.1-3.2-1.7-3.9-2.2s-2.8-3.2-3-8.2c-0.1-4.2,5-24.4,5.1-28.6        c0.1-5.1-4.5-14.3-6.3-17c-0.6-1.6-1.1-3.1-1.1-3.3c-0.2-2.6-0.3-5.2-0.3-7.9c0.2-3.2,4-8.5,1.3-22.4        c-1.9-9.4-4.2-11.9-5.4-16.7c-1.1-6.5-2-11.2-1.9-11.1l1,0.3l0.8,0.2l0.1-0.1c0.4-0.7,7.8-3.6,9.9-6.2        c2.5-2.9,7.6-3.2,11.9-6.7c7.1-5.7,5.5-9.2,6.6-10.9s0.2-2.5,0-2.6s-0.2-0.5-2-3.8c-1.7-3-3.7-5.9-6-8.5        c-0.6-2.6-1.6-5.1-3.1-7.3c-2.6-4.2-11-5.7-13.5-6.8s-12.8-3.3-12.8-3.3l-9.2,2.9l-8.8-2.9c0,0-6.5,1.4-10.6,2.5        c-5.7,2.2-13.9,5.8-15.2,8.5c-1.2,2.3-2.1,4.7-2.7,7.2l1,4.7c0,0-1.1-5.3-4.5-0.4S652.7,65.7,653,67z M720,71.2        c2.1-3.9,4-8,5.6-12.2c0.6,1.1,1.4,2,2.4,2.8c2.5,1.2,5.8,1,7.8,2.8c1.2,1.2,2.8,0.6,4.3,1.6c-5.2,1-8.4,6.6-12,9.3        c-2.5,6-11.1,6.1-11.1,6.1l-2.5,0.5C714.2,75.5,720.1,71.2,720,71.2L720,71.2z M658.6,66.1c1.5-0.9,3.1-0.3,4.3-1.6        c2.1-1.8,5.3-1.6,7.8-2.8c0.6-0.5,1.2-1.1,1.8-1.7l1.5-3c0,0,3.6,10,5.7,12.3s7.4,5.3,7.4,5.3s-1.9,5.9-1.9,7.6        c0,1.1-1,0.3-1.8-0.4l-1.7-0.4c0,0-8.5-0.1-11.1-6.1C667.1,72.7,663.9,67.1,658.6,66.1L658.6,66.1z" id="svg_34"/>
						
							<linearGradient id="SVGID_4_" gradientUnits="userSpaceOnUse" x1="672.5499877929688" y1="286.1286926269531" x2="687.1500244140625" y2="286.1286926269531" gradientTransform="matrix(1 0 0 -1 0 356)">
							<stop offset="0" style="stop-color:#1B75B9"/>
							<stop offset="1" style="stop-color:#2B388D"/>
						</linearGradient>
						<path class="st18" d="M678.8,71.2c-2.1-3.9-4-8-5.6-12.2c-0.2,0.4-0.4,0.7-0.7,1.1L674,57c0,0,3.6,10,5.7,12.3        s7.4,5.3,7.4,5.3s-1.9,5.9-1.9,7.6c0,1.1-1,0.3-1.8-0.4l0.7,0.2C684.7,75.5,678.8,71.2,678.8,71.2z" id="svg_35"/>
					</g>
					<g id="svg_36">
						
							<linearGradient id="SVGID_5_" gradientUnits="userSpaceOnUse" x1="658.7000122070312" y1="287.45001220703125" x2="670.8800048828125" y2="287.45001220703125" gradientTransform="matrix(1 0 0 -1 0 356)">
							<stop offset="0" style="stop-color:#1B75B9"/>
							<stop offset="1" style="stop-color:#2B388D"/>
						</linearGradient>
						<path class="st19" d="M663.8,66.2c0.4-0.6,1.1-1,1.8-1.1c1-0.2,3.4-1.7,5.2-3.4c-2.5,1.2-5.8,1-7.8,2.8        c-1.2,1.2-2.8,0.6-4.3,1.6c5.2,1,8.4,6.6,12,9.3c-0.1-0.3-0.3-0.7-0.4-1C667.9,67.8,665.2,68.1,663.8,66.2z" id="svg_37"/>
						<path class="st20" d="M735.1,66.2c-0.4-0.6-1.1-1-1.8-1.1c-1-0.2-3.4-1.7-5.2-3.4c2.5,1.2,5.8,1,7.8,2.8        c1.2,1.2,2.8,0.6,4.3,1.6c-5.2,1-8.4,6.6-12,9.3c0.1-0.3,0.3-0.7,0.4-1C731,67.8,733.7,68.1,735.1,66.2z" id="svg_38"/>
					</g>
					
						<linearGradient id="SVGID_6_" gradientUnits="userSpaceOnUse" x1="704.4500122070312" y1="295.45001220703125" x2="716.8101196289062" y2="295.45001220703125" gradientTransform="matrix(1 0 0 -1 0 356)">
						<stop offset="0" style="stop-color:#1B75B9"/>
						<stop offset="1" style="stop-color:#2B388D"/>
					</linearGradient>
					<path class="st21" d="M704.5,54.7c0,0,2.7,9.7,4.3,9.9s8.1,1.8,8.1,1.8s-5.2-1.3-7-3.2S704.5,54.7,704.5,54.7z" id="svg_39"/>
					
						<linearGradient id="SVGID_7_" gradientUnits="userSpaceOnUse" x1="681.97998046875" y1="295.45001220703125" x2="694.3400268554688" y2="295.45001220703125" gradientTransform="matrix(1 0 0 -1 0 356)">
						<stop offset="0" style="stop-color:#1B75B9"/>
						<stop offset="1" style="stop-color:#2B388D"/>
					</linearGradient>
					<path class="st22" d="M694.3,54.7c0,0-2.7,9.7-4.3,9.9s-8.1,1.8-8.1,1.8s5.2-1.3,7-3.2S694.3,54.7,694.3,54.7z" id="svg_40"/>
					
						<linearGradient id="SVGID_8_" gradientUnits="userSpaceOnUse" x1="696.7000122070312" y1="292.3500061035156" x2="702.1699829101562" y2="292.3500061035156" gradientTransform="matrix(1 0 0 -1 0 356)">
						<stop offset="0" style="stop-color:#1B75B9"/>
						<stop offset="1" style="stop-color:#2B388D"/>
					</linearGradient>
					<path class="st23" d="M699.4,51c-0.1-3.8,0-6.7,0-6.7S699.6,47.2,699.4,51L699.4,51c0.2,5.8-0.1,13.9,2.7,17.6       c0,0-2.1,9.4-2.7,14.4c-0.7-5-2.7-14.4-2.7-14.4C699.6,64.9,699.2,56.8,699.4,51z" id="svg_41"/>
					<g id="svg_42">
						<path class="st17" d="M692.5,33.9c0.5-1.3,0.2-9.4,0.2-9.4c-0.5-0.9-0.8-1.8-1-2.8c-0.1-0.6,0.2-1.3,0.8-1.5        c0,0-0.3-4.9-0.4-5.6s-0.1-3.5,0.5-4.3c0.9-0.7,1.9-1.1,3-1.4l-1.4-0.6c2.1-0.1,4.3-0.1,6.4,0.1c-7.9-1.8-7.8,0.1-7.9,0.7        s-1.4,3.2-3.7,3.6c-0.9,0.1-1.9,0-2.8-0.2c-1.6-0.8-3-1.3-2.9-1.2s5.8-1.4,5.8-1.4l-4.7-3.5c1.5,0.3,3,0.3,4.5,0.1        c2.5-0.4,14,1,15,1.6s3.3,4.8,3.3,4.8v5.5l1.2,1.2c0.1,0.8,0.1,1.6-0.1,2.3c-0.2,0.7-0.8,2.4-0.8,2.4v2.6        c0.2,1.8,0.5,3.5,0.9,5.3c0.1,0.2,3.9,4.7,4.4,4.8c-1.2,2.5-5.7,0.6-8.2,2.1c-2.8,1.6-6.1,1.9-9.1,0.9c-2.5-0.8-4.8-2-6.8-3.6        C690.5,35.6,692.4,34.5,692.5,33.9z" id="svg_43"/>
						<path class="st20" d="M689,12.9c2.4-0.4,3.6-3.1,3.7-3.6s0-2.5,7.9-0.7c-2.1-0.2-4.3-0.3-6.4-0.1l1.4,0.5        c-1.1,0.2-2.1,0.7-2.9,1.4c-0.7,0.8-0.7,3.6-0.5,4.3s0.4,5.6,0.4,5.6c-0.6,0.3-0.9,0.9-0.8,1.5c0.2,1,0.5,1.9,1,2.8        c0,0,0.4,8.1-0.2,9.4c0.3-1-0.1-8.8-0.4-9c-0.5-0.7-0.9-1.4-1.2-2.2c0-0.3,0.1-2.5,0.1-2.5l1-0.6c0-1.2-0.2-2.3-0.5-3.5        c-0.3-1-3.1-2.5-5.3-3.5C687.1,12.9,688.1,13,689,12.9z" id="svg_44"/>
					</g>
					<g id="svg_45">
						<path class="st16" d="M658.7,66.1c1.5-0.9,3.1-0.3,4.3-1.6c2.1-1.8,5.3-1.6,7.8-2.8c1-0.8,1.7-1.7,2.3-2.7        c1.6,4.2,3.4,8.3,5.6,12.2c0,0,5.9,4.3,5.5,10.8l-2.5-0.5c0,0-8.5-0.1-11.1-6.1C667.1,72.7,663.9,67.1,658.7,66.1z" id="svg_46"/>
						<path class="st16" d="M720.1,71.2c2.1-3.9,4-8,5.6-12.2c0.6,1.1,1.4,2,2.4,2.8c2.5,1.2,5.8,1,7.8,2.8c1.2,1.2,2.8,0.6,4.3,1.6        c-5.2,1-8.4,6.6-12,9.3c-2.5,6-11.1,6.1-11.1,6.1l-2.5,0.5C714.2,75.5,720.1,71.2,720.1,71.2z" id="svg_47"/>
						
							<linearGradient id="SVGID_9_" gradientUnits="userSpaceOnUse" x1="652.22998046875" y1="292.5" x2="680.06640625" y2="292.5" gradientTransform="matrix(1 0 0 -1 0 356)">
							<stop offset="0" style="stop-color:#1B75B9"/>
							<stop offset="1" style="stop-color:#2B388D"/>
						</linearGradient>
						<path class="st24" d="M671.2,85.6c-2.5-2.9-7.6-3.2-11.9-6.7c-7.1-5.7-5.5-9.2-6.6-10.9s-0.2-2.5,0-2.6s0.2-0.5,2-3.8        c1.8-3.1,3.8-6,6.2-8.7c0.5-2.6,1.5-5.1,3.1-7.3c3.5-5.2,11-5.7,13.5-6.8c0.8-0.3,1.7-0.6,2.5-0.9c-5.7,2.2-13.9,5.8-15.2,8.5        c-1.2,2.3-2.1,4.7-2.7,7.2l1,4.7c0,0-1.1-5.3-4.5-0.4s-5.9,7.6-5.5,8.9s0.6,6.4,4.2,9.3s7.6,4,10.8,6.1        c2.2,1.4,6.2,4.8,8.7,6.9C674.6,88.2,672.3,86.8,671.2,85.6z" id="svg_48"/>
					</g>
					<g id="svg_49">
						<path class="st16" d="M670.9,61.8c1-0.8,1.8-1.7,2.3-2.8c1.6,4.2,3.4,8.3,5.6,12.2c0,0,5.9,4.3,5.5,10.8l-2.5-0.5        c0,0-8.5-0.1-11.1-6.1c-3.6-2.7-6.8-8.3-12-9.3c1.5-0.9,3.1-0.3,4.3-1.6C665.1,62.7,668.3,62.9,670.9,61.8z" id="svg_50"/>
						<path class="st16" d="M720.1,71.2c2.1-3.9,4-8,5.6-12.2c0.6,1.1,1.4,2,2.4,2.8c2.5,1.2,5.8,1,7.8,2.8c1.2,1.2,2.8,0.6,4.3,1.6        c-5.2,1-8.4,6.6-12,9.3c-2.5,6-11.1,6.1-11.1,6.1l-2.5,0.5C714.2,75.5,720.1,71.2,720.1,71.2z" id="svg_51"/>
						<path class="st20" d="M665.2,207.9c0.3-1.5,1.9-1.7,3-1.8c0.4,0,0.7-0.1,1.1-0.2c0.6-0.3,3-2.8,3.5-8        c0.2-2.2-0.8-9.1-1.8-15.6c-0.8-5.8-1.6-11.2-1.6-13.2c0.1-4.2,4.2-12.8,6.9-17.5c0.7-3.3,0.9-6.7,0.7-10.1        c-0.1-0.9-0.4-1.9-0.7-2.8c-1.1-3.5-2.7-8.8-0.6-19.4c0.7-4.2,1.9-8.3,3.4-12.3c1.5-3.8,2.6-7.7,3.3-11.7        c0.1-0.7,0.3-1.3,0.5-2s0.4-1.4,0.6-2.1h0.1c0,0.1-1,9.2-0.4,11.4s4.2,5.1,6.8,5.8l0.6,0.2H690c-0.2,0-5.7-0.3-7.2-1.2        c-0.1-0.1-0.2-0.1-0.3-0.1c-1.6,0-4.7,6.4-5.8,13.2c-1.2,7.5,1,19.3,1.7,21.4s-0.2,8.2-1.1,9.7s-7.4,14.1-7,18.1        c0.7,7.3,3,11.4,7,12.6l0.3,0.1h-0.3c-0.1,0-0.2,0-0.4,0c-1,0-3.5-0.4-6.1-3.8c0.5,2.3,3.8,17.1,2.8,21.1        c-0.2,0.6-0.3,1.2-0.4,1.7c-0.8,3.2-1.3,5.2-3.6,5.7l-0.3,0.1c-1.3,0.3-2,0.4-2.2,0.8c0,0.5,0.1,1,0.4,1.3        c0,0.1,0.1,0.1,0.1,0.2l0.1,0.2l-0.2-0.1C666.7,209.2,665.9,208.6,665.2,207.9L665.2,207.9L665.2,207.9L665.2,207.9z" id="svg_52"/>
					</g>
				</g>
				<g id="svg_53">
					<path class="st20" d="M555.3,73.7c1.4,1.2,2.6,2.6,3.5,4.1c1.8,3.2,2.7,6.8,2.6,10.4c-20,2.9-41.1,5-41.1,5       c3.5-0.8,15.3-14.9,19.5-18.4C541.2,73.8,547.4,73.5,555.3,73.7z" id="svg_54"/>
					<path class="st20" d="M624.1,156.1c0,0,19.4,13.1,32.3,10.7c0,0-20.6-38.3-18.5-30.4C641.8,150.3,633,154.6,624.1,156.1z" id="svg_55"/>
					<path class="st20" d="M585.2,126c0,0,7.3-15.8,34.2-22.5s-43.2,0.4-43.7,4.4S578.5,122.4,585.2,126z" id="svg_56"/>
					
						<linearGradient id="SVGID_10_" gradientUnits="userSpaceOnUse" x1="473.2001037597656" y1="255.65890502929688" x2="724.9191284179688" y2="255.65890502929688" gradientTransform="matrix(1 0 0 -1 0 356)">
						<stop offset="0" style="stop-color:#F9AE3B"/>
						<stop offset="0.86" style="stop-color:#FF911E"/>
					</linearGradient>
					<path class="st25" d="M724.9,38.9c0,0,1.6,26-24.5,42.7c-43.2,27.5-46.2,68.9-43.8,81.8s-9.9-15.2-28-21.6       c-16-5.7-16.9,8.8-16.9,8.8c-3-8.7-6.7-17.1-11.1-25.1c-7.6-14-23.4-22.8-24-15.2s8.8,15.8,8.8,15.8s-18.1-8.2-25.1-19.3       s5.8-26.3-8.8-31s-14,14.6-31,17.5s-37.4-8.8-47.3-22.8c0,0,42.1,1.8,57.8-4.7s38-21,66.6-21.6s52,2.3,68.4-2.9       S695.7,29,724.9,38.9z" id="svg_57"/>
					<path class="st20" d="M721.2,40.3c0,0-1.4,19.8-34.6,39.1c-25.5,14.8-67.8,55.9-72.6,63.6c0,0,19.5-34.2,57-56.7       C718.4,57.9,717.5,45.7,721.2,40.3z" id="svg_58"/>
					<path class="st20" d="M713.5,39.2c0,0-11.9,36.8-71.7,48.5c-55.1,10.7-65.2,19.8-65.2,19.8s15.8-15,54.7-21       C680.9,78.9,701.3,60.2,713.5,39.2z" id="svg_59"/>
					<path class="st20" d="M545.7,73.8c0,0,46.2,2,62.7,0.6s51.3,2.3,87.3-33.7c0,0-33.5,31.2-81.1,31.2       C614.2,71.8,545.7,73.8,545.7,73.8z" id="svg_60"/>
					<g id="svg_61">
						<path class="st20" d="M577.7,60.5c-49,4.9-48.5,14.6-101.7,10c9.3,0.3,41.9,0.7,55.3-4.8c15.8-6.4,38-21,66.6-21.6        s52,2.3,68.4-2.9c3.9-1.3,7.7-2.6,11.5-3.8C672.9,42.8,664.4,51.8,577.7,60.5z" id="svg_62"/>
					</g>
				</g>
			</g>
		</g>
		<g id="svg_63">
			<g id="svg_64">
				
					<linearGradient id="SVGID_11_" gradientUnits="userSpaceOnUse" x1="717.8300170898438" y1="188.8300018310547" x2="717.8300170898438" y2="206.02999877929688" gradientTransform="matrix(1 0 0 -1 -321.53 213.43)">
					<stop offset="0" style="stop-color:#C6182A"/>
					<stop offset="1" style="stop-color:#EC9046"/>
				</linearGradient>
				<polygon class="st26" points="396.3,7.4 391.3,16 396.3,24.6 401.3,16     " id="svg_65"/>
				
					<linearGradient id="SVGID_12_" gradientUnits="userSpaceOnUse" x1="408.20001220703125" y1="265.3800048828125" x2="408.20001220703125" y2="334.3800048828125" gradientTransform="matrix(1 0 0 -1 0 356)">
					<stop offset="0" style="stop-color:#C6182A"/>
					<stop offset="1" style="stop-color:#EC9046"/>
				</linearGradient>
				<path class="st27" d="M422.4,35.1l-6.3-10.8l-3.2,5.5l6.3,10.8L422.4,35.1z M419.2,40.6l-3.1,5.3l-6.3-10.8l3.1-5.3l-4.7-8.1      l-29.5,50.8l12.9,18.2h33.2l12.9-18.2L419.2,40.6z M401.2,82.6l-8.8-15.1l8.8-15.1l8.8,15L401.2,82.6z" id="svg_66"/>
				
					<linearGradient id="SVGID_13_" gradientUnits="userSpaceOnUse" x1="700.0800170898438" y1="160.66000366210938" x2="700.0800170898438" y2="174.6199951171875" gradientTransform="matrix(1 0 0 -1 -321.53 213.43)">
					<stop offset="0" style="stop-color:#C6182A"/>
					<stop offset="1" style="stop-color:#EC9046"/>
				</linearGradient>
				<polygon class="st28" points="378.5,38.8 374.5,45.8 378.5,52.8 382.6,45.8     " id="svg_67"/>
				
					<linearGradient id="SVGID_14_" gradientUnits="userSpaceOnUse" x1="737.6300048828125" y1="203.14999389648438" x2="737.6300048828125" y2="209.24000549316406" gradientTransform="matrix(1 0 0 -1 -321.53 213.43)">
					<stop offset="0" style="stop-color:#C6182A"/>
					<stop offset="1" style="stop-color:#EC9046"/>
				</linearGradient>
				<polygon class="st29" points="416.1,4.2 414.3,7.2 416.1,10.3 417.9,7.2     " id="svg_68"/>
				
					<linearGradient id="SVGID_15_" gradientUnits="userSpaceOnUse" x1="759.22998046875" y1="155.52999877929688" x2="759.22998046875" y2="166.50999450683594" gradientTransform="matrix(1 0 0 -1 -321.53 213.43)">
					<stop offset="0" style="stop-color:#C6182A"/>
					<stop offset="1" style="stop-color:#EC9046"/>
				</linearGradient>
				<polygon class="st30" points="437.7,46.9 434.5,52.4 437.7,57.9 440.9,52.4     " id="svg_69"/>
			</g>
			<g id="svg_70">
				<polygon class="st31" points="395.5,95.9 401.3,95.9 403.1,101.4 398.4,104.8 393.7,101.4     " id="svg_71"/>
				<polygon class="st31" points="414.7,95.9 420.5,95.9 422.2,101.4 417.5,104.8 412.9,101.4     " id="svg_72"/>
				<polygon class="st31" points="431,92.3 434.2,87.5 439.8,89.2 439.9,94.9 434.5,96.9     " id="svg_73"/>
				<polygon class="st31" points="385.3,92 382,87.2 376.4,88.9 376.3,94.7 381.8,96.6     " id="svg_74"/>
			</g>
		</g>
	</g>
</g></g></svg>