<svg xmlns="http://www.w3.org/2000/svg" xmlns:xlink="http://www.w3.org/1999/xlink" version="1.1" xml:space="preserve" width="816" height="218"><rect id="backgroundrect" width="100%" height="100%" x="0" y="0" fill="none" stroke="none"/>
<style type="text/css">
	.st0{fill:none;stroke:#FFFFFF;stroke-miterlimit:10;}
	.st1{fill:none;stroke:url(#top-line_1_);stroke-miterlimit:10;}
	.st2{fill:none;stroke:url(#middle-line_1_);stroke-miterlimit:10;}
	.st3{fill:none;stroke:url(#bottom-line_1_);stroke-miterlimit:10;}
	.st4{fill:url(#SVGID_1_);}
	.st5{fill:url(#circle2_1_);}
	.st6{fill:url(#SVGID_2_);}
	.st7{fill:url(#SVGID_3_);}
	.st8{fill:#0077B5;}
	.st9{fill:#FFFFFF;}
	.st10{fill:#999999;}
	.st11{fill:#181616;}
	.st12{fill:#80B23F;}
	.st13{fill:none;stroke:#FFFFFF;stroke-width:2;stroke-miterlimit:10;}
	.st14{fill:#BCBBBB;}
	.st15{fill:#F48024;}
	.st16{fill:none;}
	.st17{fill:#343838;}
	.st18{fill:url(#SVGID_4_);}
	.st19{fill:url(#SVGID_5_);}
	.st20{fill:#EF5A24;}
	.st21{fill:url(#SVGID_6_);}
	.st22{fill:url(#SVGID_7_);}
	.st23{fill:url(#SVGID_8_);}
	.st24{fill:url(#SVGID_9_);}
	.st25{fill:url(#SVGID_10_);}
	.st26{fill:url(#SVGID_11_);}
	.st27{fill:url(#SVGID_12_);}
	.st28{fill:url(#SVGID_13_);}
	.st29{fill:url(#SVGID_14_);}
	.st30{fill:url(#SVGID_15_);}
	.st31{fill:#603F17;}
</style>
<title>ill</title>


<g class="currentLayer"><title>Layer 1</title><g id="svg_1" class="selected">
	<g id="HEOR">
		<g id="svg_2">
			<path id="bottom-line-white" class="st0" d="M86.0361642241478,187.3816949916104 c116.45208178758622,0 168.2949056148529,-115.901522397995 295.9592469453812,-115.59023809432983 c11.545296955108643,0.10376143455505371 23.20160638093948,0.20752286911010742 34.74690333604813,0.31128430366516124 "/>
			<path id="middle-line-white" class="st0" d="M130.55216498374938,98.04309983970916 c74.0453179717064,0 89.36503893136978,-10.583666324615479 132.8819274544716,-18.262012481689453 c43.8499259352684,-7.782107591629028 81.15011609792708,-7.782107591629028 118.56131873130798,-7.885869026184082 c14.653646135330199,0 26.976030385494234,0.20752286911010742 35.523990631103516,0.5188071727752686 "/>
			<path id="top-line-white" class="st0" d="M186.1694128155708,24.372481305621022 c77.81974197626113,0 82.03821586370469,21.063571214675903 114.45385731458663,35.071364879608154 c22.979581439495085,9.961097717285156 45.18207558393479,10.272382020950317 81.37214103937148,12.347610712051392 c14.7646586060524,0.8300914764404297 27.087042856216428,1.037614345550537 35.523990631103516,1.037614345550537 "/>
			
				<linearGradient id="top-line_1_" gradientUnits="userSpaceOnUse" x1="179.1999969482422" y1="307.25" x2="355.6012878417969" y2="307.25" gradientTransform="matrix(1 0 0 -1 0 356)" transform="translate(-11.71875,-2.34375) translate(-2.21875,1.8562498092651367) scale(1.1101247072219849,1.037614345550537) translate(2.21875,-1.8562498092651367) ">
				<stop offset="0" style="stop-color:#F9AE3B"/>
				<stop offset="0.86" style="stop-color:#FF911E"/>
			</linearGradient>
			<path id="top-line" class="st1" d="M186.1694128155708,24.372481305621022 c116.45208178758622,0 68.16165702342987,47.107691287994385 195.82599835395814,47.418975591659546 "/>
			
				<linearGradient id="middle-line_1_" gradientUnits="userSpaceOnUse" x1="129.10000610351562" y1="271.70001220703125" x2="355.6000061035156" y2="271.70001220703125" gradientTransform="matrix(1 0 0 -1 0 356)" transform="translate(-11.71875,-2.34375) translate(-2.21875,1.8562498092651367) scale(1.1101247072219849,1.037614345550537) translate(2.21875,-1.8562498092651367) ">
				<stop offset="0" style="stop-color:#F9AE3B"/>
				<stop offset="0.86" style="stop-color:#FF911E"/>
			</linearGradient>
			<path id="middle-line" class="st2" d="M130.55216498374938,98.04309983970916 c116.45208178758622,0 87.6998518705368,-26.147881507873535 251.44324618577957,-26.147881507873535 "/>
			
				<linearGradient id="bottom-line_1_" gradientUnits="userSpaceOnUse" x1="89" y1="228.70030212402344" x2="355.6012878417969" y2="228.70030212402344" gradientTransform="matrix(1 0 0 -1 0 356)" transform="translate(-11.71875,-2.34375) translate(-2.21875,1.8562498092651367) scale(1.1101247072219849,1.037614345550537) translate(2.21875,-1.8562498092651367) ">
				<stop offset="0" style="stop-color:#F9AE3B"/>
				<stop offset="0.86" style="stop-color:#FF911E"/>
			</linearGradient>
			<path id="bottom-line" class="st3" d="M86.0361642241478,187.3816949916104 c116.45208178758622,0 168.2949056148529,-115.901522397995 295.9592469453812,-115.59023809432983 "/>
			<g id="svg_3">

				<animateMotion accumulate="none" additive="replace" calcMode="paced" dur="6s" fill="remove" repeatCount="indefinite" restart="always" transform="translate(-11.71875,-2.34375) translate(-209.60000610351562,-27.5) translate(-2.21875,1.8562498092651367) scale(1.1101247072219849,1.037614345550537) translate(2.21875,-1.8562498092651367) ">
					<mpath xmlns:xlink="http://www.w3.org/1999/xlink" xlink:href="#top-line-white"/>
				</animateMotion>

				<linearGradient id="SVGID_1_" gradientUnits="userSpaceOnUse" x1="204.64999389648438" y1="328.5" x2="214.64999389648438" y2="328.5" gradientTransform="matrix(1 0 0 -1 0 356)" transform="translate(-11.71875,-2.34375) translate(-209.60000610351562,-27.5) translate(-2.21875,1.8562498092651367) scale(1.1101247072219849,1.037614345550537) translate(2.21875,-1.8562498092651367) ">
					<stop offset="0" style="stop-color:#F9AE3B"/>
					<stop offset="0.86" style="stop-color:#FF911E"/>
				</linearGradient>
				<circle class="st4" cx="-12.764934718608856" cy="-2.501730244137889" r="5.1880717277526855" id="svg_4"/>
			</g>
			<g id="svg_5">

				<animateMotion accumulate="none" additive="replace" begin="2s" calcMode="paced" dur="5s" fill="remove" repeatCount="indefinite" restart="always" transform="translate(-11.71875,-2.34375) translate(-171.60000610351562,-94.5999984741211) translate(-2.21875,1.8562498092651367) scale(1.1101247072219849,1.037614345550537) translate(2.21875,-1.8562498092651367) ">
					<mpath xmlns:xlink="http://www.w3.org/1999/xlink" xlink:href="#middle-line-white"/>
				</animateMotion>

				<linearGradient id="circle2_1_" gradientUnits="userSpaceOnUse" x1="166.64999389648438" y1="261.3999938964844" x2="176.64999389648438" y2="261.3999938964844" gradientTransform="matrix(1 0 0 -1 0 356)" transform="translate(-11.71875,-2.34375) translate(-171.60000610351562,-94.5999984741211) translate(-2.21875,1.8562498092651367) scale(1.1101247072219849,1.037614345550537) translate(2.21875,-1.8562498092651367) ">
					<stop offset="0" style="stop-color:#F9AE3B"/>
					<stop offset="0.86" style="stop-color:#FF911E"/>
				</linearGradient>
				<circle id="circle2" class="st5" cx="-12.764934718608856" cy="-2.501730244137889" r="5.1880717277526855"/>
			</g>
			<g id="svg_6">

				<animateMotion accumulate="none" additive="replace" begin="5s" calcMode="paced" dur="5s" fill="remove" repeatCount="indefinite" restart="always" transform="translate(-11.71875,-2.34375) translate(-263.6000061035156,-76.5999984741211) translate(-2.21875,1.8562498092651367) scale(1.1101247072219849,1.037614345550537) translate(2.21875,-1.8562498092651367) ">
					<mpath xmlns:xlink="http://www.w3.org/1999/xlink" xlink:href="#middle-line-white"/>
				</animateMotion>

				<linearGradient id="SVGID_2_" gradientUnits="userSpaceOnUse" x1="258.6499938964844" y1="279.3999938964844" x2="268.6499938964844" y2="279.3999938964844" gradientTransform="matrix(1 0 0 -1 0 356)" transform="translate(-11.71875,-2.34375) translate(-263.6000061035156,-76.5999984741211) translate(-2.21875,1.8562498092651367) scale(1.1101247072219849,1.037614345550537) translate(2.21875,-1.8562498092651367) ">
					<stop offset="0" style="stop-color:#F9AE3B"/>
					<stop offset="0.86" style="stop-color:#FF911E"/>
				</linearGradient>
				<circle class="st6" cx="-12.764934718608856" cy="-2.501730244137889" r="5.1880717277526855" id="svg_7"/>
			</g>
			<g id="svg_8">

				<animateMotion accumulate="none" additive="replace" begin="1s" calcMode="paced" dur="7s" fill="remove" repeatCount="indefinite" restart="always" transform="translate(-11.71875,-2.34375) translate(-200.60000610351562,-139.60000610351562) translate(-2.21875,1.8562498092651367) scale(1.1101247072219849,1.037614345550537) translate(2.21875,-1.8562498092651367) ">
					<mpath xmlns:xlink="http://www.w3.org/1999/xlink" xlink:href="#bottom-line-white"/>
				</animateMotion>

				<linearGradient id="SVGID_3_" gradientUnits="userSpaceOnUse" x1="195.64999389648438" y1="216.39999389648438" x2="205.64999389648438" y2="216.39999389648438" gradientTransform="matrix(1 0 0 -1 0 356)" transform="translate(-11.71875,-2.34375) translate(-200.60000610351562,-139.60000610351562) translate(-2.21875,1.8562498092651367) scale(1.1101247072219849,1.037614345550537) translate(2.21875,-1.8562498092651367) ">
					<stop offset="0" style="stop-color:#F9AE3B"/>
					<stop offset="0.86" style="stop-color:#FF911E"/>
				</linearGradient>
				<circle class="st7" cx="-12.764934718608856" cy="-2.501730244137889" r="5.1880717277526855" id="svg_9"/>
			</g>
			<g id="svg_10">
				<g id="svg_11">
					<path class="st8" d="M173.40297868251798,10.987256248019094 h-28.64121744632721 c-1.3321496486663817,0 -2.442274355888367,1.037614345550537 -2.442274355888367,2.2827515602111816 v26.87421154975891 c0,1.2451372146606445 1.1101247072219849,2.2827515602111816 2.442274355888367,2.2827515602111816 h28.64121744632721 c1.3321496486663817,0 2.553286826610565,-0.9338529109954834 2.553286826610565,-2.178990125656128 l0,0 v-26.977972984313965 C175.95626550912857,12.02487059356963 174.84614080190659,10.987256248019094 173.40297868251798,10.987256248019094 L173.40297868251798,10.987256248019094 z" id="svg_12"/>
					<path class="st9" d="M147.20403559207915,22.816059787295217 h4.995561182498932 v15.045408010482788 h-4.995561182498932 V22.816059787295217 zM149.75732241868974,15.34523649933135 c1.5541745901107786,0 2.886324238777161,1.2451372146606445 2.886324238777161,2.6977972984313965 s-1.3321496486663817,2.6977972984313965 -2.886324238777161,2.6977972984313965 s-2.886324238777161,-1.2451372146606445 -2.886324238777161,-2.6977972984313965 S148.20314782857895,15.34523649933135 149.75732241868974,15.34523649933135 L149.75732241868974,15.34523649933135 " id="svg_13"/>
					<path class="st9" d="M155.41895842552185,22.816059787295217 h4.773536241054535 v2.075228691101074 h0.1110124707221985 c0.9991122364997864,-1.5564215183258057 2.775311768054962,-2.490274429321289 4.662523770332337,-2.490274429321289 c5.10657365322113,0 5.994673418998719,3.1128430366516113 5.994673418998719,7.159538984298706 v8.197153329849243 H165.9651431441307 v-7.26330041885376 c0,-1.7639443874359133 0,-3.942934513092041 -2.553286826610565,-3.942934513092041 s-2.9973367094993595,1.8677058219909668 -2.9973367094993595,3.8391730785369873 v7.470823287963867 h-4.995561182498932 V22.816059787295217 L155.41895842552185,22.816059787295217 z" id="svg_14"/>
				</g>
				<g id="svg_15">
					<polygon class="st10" points="178.17651492357254,35.578717029203744 178.95359883079618,35.578717029203744 178.95359883079618,37.75770557158603 179.39765887718022,37.75770557158603 179.39765887718022,35.578717029203744 180.06372353801817,35.578717029203744 180.06372353801817,35.16366970770969 178.17651492357254,35.16366970770969 " id="svg_16"/>
					<polygon class="st10" points="182.83903530607313,35.16366970770969 182.0619513988495,37.03137473806373 181.17384824524015,35.16366970770969 180.61878589162916,35.16366970770969 180.61878589162916,37.75770557158603 181.0628459380132,37.75770557158603 181.0628459380132,35.78624068995077 181.83992984523684,37.75770557158603 182.17297064523518,37.75770557158603 183.06105685968578,35.78624068995077 183.06105685968578,37.75770557158603 183.39409765968412,37.75770557158603 183.39409765968412,35.16366970770969 " id="svg_17"/>
				</g>
			</g>
			<g id="svg_18">
				<path class="st11" d="M78.93136609792708,62.86797352554595 c-15.43073343038559,0 -27.864130151271823,11.72504210472107 -27.864130151271823,26.04412007331848 c0,11.2062349319458 7.659860479831696,21.063571214675903 18.983132493495944,24.695221424102783 c0.6660748243331911,0.20752286911010742 1.5541745901107786,-0.10376143455505371 1.776199531555176,-0.7263300418853762 c0.1110124707221985,-0.20752286911010742 0.1110124707221985,-0.31128430366516124 0.1110124707221985,-0.5188071727752686 c0,-0.6225686073303225 0,-2.2827515602111816 0,-4.46174168586731 c-7.770872950553894,1.5564215183258057 -9.325047540664674,-3.527888774871826 -9.325047540664674,-3.527888774871826 c-1.2211371779441835,-3.0090816020965576 -3.1083491802215573,-3.8391730785369873 -3.1083491802215573,-3.8391730785369873 c-2.553286826610565,-1.6601829528808594 0.222024941444397,-1.5564215183258057 0.222024941444397,-1.5564215183258057 c1.776199531555176,0.20752286911010742 3.3303741216659546,1.2451372146606445 4.218473887443542,2.6977972984313965 c2.442274355888367,3.942934513092041 6.549735772609711,2.80155873298645 8.10391036272049,2.178990125656128 c0.1110124707221985,-1.3488986492156982 0.6660748243331911,-2.5940358638763428 1.6651870608329773,-3.527888774871826 c-6.2166983604431145,-0.6225686073303225 -12.655421662330628,-2.905320167541504 -12.655421662330628,-12.86641788482666 c0,-2.5940358638763428 0.9991122364997864,-5.084310293197632 2.886324238777161,-6.952016115188599 c-0.888099765777588,-2.2827515602111816 -0.7770872950553896,-4.669264554977417 0.222024941444397,-6.848254680633545 c0,0 2.3312618851661684,-0.7263300418853762 7.659860479831696,2.6977972984313965 c4.551511299610137,-1.1413757801055908 9.325047540664674,-1.1413757801055908 13.987571310997009,0 c5.328598594665527,-3.3203659057617188 7.659860479831696,-2.6977972984313965 7.659860479831696,-2.6977972984313965 c0.9991122364997864,2.178990125656128 1.1101247072219849,4.669264554977417 0.33303741216659555,6.848254680633545 c1.8872120022773744,1.8677058219909668 2.886324238777161,4.357980251312256 2.886324238777161,6.952016115188599 c0,9.961097717285156 -6.549735772609711,12.243849277496338 -12.766434133052826,12.86641788482666 c1.3321496486663817,1.2451372146606445 1.9982244729995728,3.0090816020965576 1.8872120022773744,4.876787424087524 c0,3.4241273403167725 0,6.329447507858276 0,7.159538984298706 c0,0.7263300418853762 0.5550623536109924,1.3488986492156982 1.3321496486663817,1.3488986492156982 c0.222024941444397,0 0.33303741216659555,0 0.5550623536109924,-0.10376143455505371 c14.542633664608001,-4.669264554977417 22.3135066151619,-19.507149696350098 17.317945432662963,-33.099897623062134 C101.35588518381118,70.02751250984466 90.80970046520233,62.971734960101 78.93136609792708,62.86797352554595 z" id="svg_19"/>
				<circle class="st12" cx="103.90917031650588" cy="107.58915023550026" r="11.932564973831177" id="svg_20"/>
				<path class="st13" d="M98.35854847431182,106.65529890777862 c0,0 3.4413865923881533,5.499356031417847 4.4404988288879395,5.1880717277526855 s7.437835538387299,-10.06485915184021 7.437835538387299,-10.06485915184021 " id="svg_21"/>
			</g>
			<g id="svg_22">
				<polygon class="st14" points="43.074337207699045,191.1171129686877 43.074337207699045,175.2416103152168 48.73597575540498,175.2416103152168 48.73597575540498,196.4089366313524 -2.21875,196.4089366313524 -2.21875,175.2416103152168 3.4428864303110913,175.2416103152168 3.4428864303110913,191.1171129686877 " id="svg_23"/>
				<path class="st15" d="M9.659584367275237,173.78894706489837 l27.75311768054962,5.395594596862793 l1.1101247072219849,-5.1880717277526855 l-27.75311768054962,-5.395594596862793 L9.659584367275237,173.78894706489837 zM13.322995901107788,161.33757491829192 l25.643880736827853,11.2062349319458 l2.442274355888367,-4.773025989532471 l-25.643880736827853,-11.2062349319458 L13.322995901107788,161.33757491829192 zM20.42779402732849,149.61253281357085 l21.758444261550906,16.913113832473755 l3.6634115338325497,-4.046695947647095 l-21.758444261550906,-16.913113832473755 L20.42779402732849,149.61253281357085 zM34.4153653383255,137.05739923240935 l-4.551511299610137,3.1128430366516113 L46.84876205921174,161.44133635284697 l4.551511299610137,-3.1128430366516113 L34.4153653383255,137.05739923240935 zM9.104522013664244,185.8252734732846 h28.308180034160614 v-5.291833162307739 H9.104522013664244 V185.8252734732846 z" id="svg_24"/>
				<circle class="st12" cx="50.84521015825294" cy="195.57884198836427" r="11.932564973831177" id="svg_25"/>
				<path class="st13" d="M45.29458746910095,194.64499541046416 c0,0 3.4413865923881533,5.499356031417847 4.4404988288879395,5.1880717277526855 s7.437835538387299,-10.06485915184021 7.437835538387299,-10.06485915184021 " id="svg_26"/>
			</g>
			<circle class="st12" cx="179.84170198440552" cy="41.07807226898467" r="11.932564973831177" id="svg_27"/>
			<path class="st13" d="M174.2910784482956,40.144219357989186 c0,0 3.4413865923881533,5.499356031417847 4.4404988288879395,5.1880717277526855 s7.437835538387299,-10.06485915184021 7.437835538387299,-10.06485915184021 " id="svg_28"/>
			<g id="svg_29">
				<g id="svg_30">
					<g id="svg_31">
						<path class="st16" d="M786.6358669519425,71.37641115906035 c2.3312618851661684,-4.046695947647095 4.4404988288879395,-8.300914764404297 6.2166983604431145,-12.658895015716553 c0.6660748243331911,1.1413757801055908 1.5541745901107786,2.075228691101074 2.6642992973327635,2.905320167541504 c2.775311768054962,1.2451372146606445 6.438723301887512,1.037614345550537 8.658972716331482,2.905320167541504 c1.3321496486663817,1.2451372146606445 3.1083491802215573,0.6225686073303225 4.773536241054535,1.6601829528808594 c-5.772648477554322,1.037614345550537 -9.325047540664674,6.848254680633545 -13.321496486663818,9.649813413619995 c-2.775311768054962,6.225686073303223 -12.322384250164031,6.329447507858276 -12.322384250164031,6.329447507858276 l-2.775311768054962,0.5188071727752686 C780.0861311793328,75.83815284492766 786.6358669519425,71.37641115906035 786.6358669519425,71.37641115906035 z" id="svg_32"/>
						<path class="st16" d="M732.0177313566207,61.622836310885305 c0.6660748243331911,-0.5188071727752686 1.3321496486663817,-1.1413757801055908 1.8872120022773744,-1.8677058219909668 l-1.4431621193885804,2.6977972984313965 L745.2282153725623,81.54503174545562 c0,0 0.33303741216659555,0.41504573822021484 0.7770872950553896,0.8300914764404297 l-1.8872120022773744,-0.41504573822021484 c0,0 -9.436060011386871,-0.10376143455505371 -12.322384250164031,-6.329447507858276 c-3.9964489459991457,-2.80155873298645 -7.548848009109497,-8.612199068069458 -13.321496486663818,-9.649813413619995 c1.6651870608329773,-0.9338529109954834 3.4413865923881533,-0.31128430366516124 4.773536241054535,-1.6601829528808594 C725.5790080547333,62.55668922188079 729.1314071178435,62.764212090990895 732.0177313566207,61.622836310885305 z" id="svg_33"/>
						<path class="st17" d="M712.1464990973473,67.0184309077481 c0.444049882888794,1.3488986492156982 0.6660748243331911,6.6407318115234375 4.662523770332337,9.649813413619995 s8.436947774887084,4.150457382202148 11.989346837997438,6.329447507858276 c2.442274355888367,1.452660083770752 6.8827731847763065,4.980548858642578 9.658084952831267,7.159538984298706 c2.442274355888367,1.2451372146606445 4.662523770332337,2.178990125656128 4.884548711776734,2.490274429321289 l0.1110124707221985,0.10376143455505371 l0.888099765777588,-0.20752286911010742 l1.1101247072219849,-0.31128430366516124 h0.1110124707221985 c0,0 -0.6660748243331911,9.546051979064941 0,11.828803539276123 s3.9964489459991457,5.084310293197632 6.993785655498504,5.9144017696380615 c0,0 -5.661636006832122,-0.41504573822021484 -7.326823067665099,-1.3488986492156982 s-5.4396110653877265,6.329447507858276 -6.771760714054107,14.007793664932251 s1.1101247072219849,20.025956869125366 1.8872120022773744,22.204946994781494 s-0.222024941444397,8.40467619895935 -1.2211371779441835,10.06485915184021 s-8.214922833442689,14.734123706817627 -7.770872950553894,18.884581089019775 s1.6651870608329773,11.413757801055908 7.770872950553894,13.177702188491821 c0,0 -3.552399063110352,0.6225686073303225 -7.326823067665099,-4.150457382202148 c0,0 4.4404988288879395,17.743205308914185 3.1083491802215573,22.204946994781494 s-1.4431621193885804,7.055777549743652 -4.4404988288879395,7.678346157073975 s-3.3303741216659546,0.6225686073303225 -2.3312618851661684,2.3865129947662354 c0,0.10376143455505371 0.1110124707221985,0.10376143455505371 0.1110124707221985,0.20752286911010742 c0.6660748243331911,0.31128430366516124 1.3321496486663817,0.5188071727752686 2.109236943721771,0.41504573822021484 c2.109236943721771,-0.31128430366516124 2.9973367094993595,0 6.2166983604431145,0.8300914764404297 s7.326823067665099,-1.037614345550537 7.215810596942902,-2.80155873298645 c-0.1110124707221985,-1.1413757801055908 -2.109236943721771,-4.773025989532471 -1.776199531555176,-8.197153329849243 c0.222024941444397,-2.5940358638763428 -0.222024941444397,-2.5940358638763428 -0.7770872950553896,-4.46174168586731 c-0.888099765777588,-3.0090816020965576 3.4413865923881533,-17.743205308914185 7.548848009109497,-23.138799905776978 s2.6642992973327635,-17.535682439804077 2.6642992973327635,-17.535682439804077 c-0.222024941444397,-3.3203659057617188 0.9991122364997864,-12.451372146606445 2.2202494144439697,-15.460453748703003 c3.552399063110352,-8.715960502624512 5.994673418998719,-17.743205308914185 7.215810596942902,-26.977972984313965 c0.222024941444397,-2.3865129947662354 0.888099765777588,-4.773025989532471 1.776199531555176,-7.055777549743652 l1.1101247072219849,-0.41504573822021484 l1.1101247072219849,0.41504573822021484 c0,0 0.7770872950553896,0.9338529109954834 1.8872120022773744,6.744493246078491 c0.888099765777588,4.669264554977417 0.222024941444397,13.385225057601929 5.883660948276519,27.289257287979126 c1.6651870608329773,3.942934513092041 1.3321496486663817,9.649813413619995 1.1101247072219849,12.762656450271606 c-0.222024941444397,1.037614345550537 -0.444049882888794,2.075228691101074 -0.5550623536109924,3.216604471206665 c0,0 1.6651870608329773,10.89495062828064 5.328598594665527,16.49806809425354 s6.993785655498504,20.544764041900635 5.994673418998719,23.45008420944214 c-0.6660748243331911,1.8677058219909668 -1.1101247072219849,1.8677058219909668 -0.9991122364997864,4.46174168586731 c0.1110124707221985,3.4241273403167725 -2.2202494144439697,6.952016115188599 -2.3312618851661684,8.09339189529419 c-0.222024941444397,1.7639443874359133 3.7744240045547484,3.8391730785369873 6.993785655498504,3.216604471206665 s4.107461416721344,-0.9338529109954834 6.2166983604431145,-0.41504573822021484 s4.773536241054535,-2.075228691101074 4.773536241054535,-2.075228691101074 c-0.33303741216659555,-2.178990125656128 -3.552399063110352,-1.7639443874359133 -4.329486358165741,-2.2827515602111816 s-3.1083491802215573,-3.3203659057617188 -3.3303741216659546,-8.508437633514404 c-0.1110124707221985,-4.357980251312256 5.550623536109924,-25.317790031433105 5.661636006832122,-29.67577028274536 c0.1110124707221985,-5.291833162307739 -4.995561182498932,-14.83788514137268 -6.993785655498504,-17.63944387435913 c-0.6660748243331911,-1.6601829528808594 -1.2211371779441835,-3.216604471206665 -1.2211371779441835,-3.4241273403167725 c-0.222024941444397,-2.6977972984313965 -0.33303741216659555,-5.395594596862793 -0.33303741216659555,-8.197153329849243 c0.222024941444397,-3.3203659057617188 4.4404988288879395,-8.819721937179565 1.4431621193885804,-23.24256134033203 c-2.109236943721771,-9.753574848175049 -4.662523770332337,-12.347610712051392 -5.994673418998719,-17.32815957069397 c-1.2211371779441835,-6.744493246078491 -2.2202494144439697,-11.621280670166016 -2.109236943721771,-11.517519235610962 l1.1101247072219849,0.31128430366516124 l0.888099765777588,0.20752286911010742 l0.1110124707221985,-0.10376143455505371 c0.444049882888794,-0.7263300418853762 8.658972716331482,-3.7354116439819336 10.99023460149765,-6.43320894241333 c2.775311768054962,-3.0090816020965576 8.436947774887084,-3.3203659057617188 13.21048401594162,-6.952016115188599 c7.881885421276092,-5.9144017696380615 6.105685889720917,-9.546051979064941 7.326823067665099,-11.309996366500854 s0.222024941444397,-2.5940358638763428 0,-2.6977972984313965 s-0.222024941444397,-0.5188071727752686 -2.2202494144439697,-3.942934513092041 c-1.8872120022773744,-3.1128430366516113 -4.107461416721344,-6.121924638748169 -6.660748243331909,-8.819721937179565 c-0.6660748243331911,-2.6977972984313965 -1.776199531555176,-5.291833162307739 -3.4413865923881533,-7.574584722518921 c-2.886324238777161,-4.357980251312256 -12.211371779441833,-5.9144017696380615 -14.986683547496796,-7.055777549743652 s-14.209596252441408,-3.4241273403167725 -14.209596252441408,-3.4241273403167725 l-10.21314730644226,3.0090816020965576 l-9.769097423553468,-3.0090816020965576 c0,0 -7.215810596942902,1.452660083770752 -11.767321896553039,2.5940358638763428 c-6.327710831165314,2.2827515602111816 -15.43073343038559,6.018163204193115 -16.87389554977417,8.819721937179565 c-1.3321496486663817,2.3865129947662354 -2.3312618851661684,4.876787424087524 -2.9973367094993595,7.470823287963867 l1.1101247072219849,4.876787424087524 c0,0 -1.2211371779441835,-5.499356031417847 -4.995561182498932,-0.41504573822021484 S711.8134616851808,65.6695322585324 712.1464990973473,67.0184309077481 zM786.5248544812202,71.37641115906035 c2.3312618851661684,-4.046695947647095 4.4404988288879395,-8.300914764404297 6.2166983604431145,-12.658895015716553 c0.6660748243331911,1.1413757801055908 1.5541745901107786,2.075228691101074 2.6642992973327635,2.905320167541504 c2.775311768054962,1.2451372146606445 6.438723301887512,1.037614345550537 8.658972716331482,2.905320167541504 c1.3321496486663817,1.2451372146606445 3.1083491802215573,0.6225686073303225 4.773536241054535,1.6601829528808594 c-5.772648477554322,1.037614345550537 -9.325047540664674,6.848254680633545 -13.321496486663818,9.649813413619995 c-2.775311768054962,6.225686073303223 -12.322384250164031,6.329447507858276 -12.322384250164031,6.329447507858276 l-2.775311768054962,0.5188071727752686 C780.0861311793328,75.83815284492766 786.6358669519425,71.37641115906035 786.5248544812202,71.37641115906035 L786.5248544812202,71.37641115906035 zM718.3631974577904,66.08457799675261 c1.6651870608329773,-0.9338529109954834 3.4413865923881533,-0.31128430366516124 4.773536241054535,-1.6601829528808594 c2.3312618851661684,-1.8677058219909668 5.883660948276519,-1.6601829528808594 8.658972716331482,-2.905320167541504 c0.6660748243331911,-0.5188071727752686 1.3321496486663817,-1.1413757801055908 1.9982244729995728,-1.7639443874359133 l1.6651870608329773,-3.1128430366516113 c0,0 3.9964489459991457,10.376143455505371 6.327710831165314,12.762656450271606 s8.214922833442689,5.499356031417847 8.214922833442689,5.499356031417847 s-2.109236943721771,6.121924638748169 -2.109236943721771,7.885869026184082 c0,1.1413757801055908 -1.1101247072219849,0.31128430366516124 -1.9982244729995728,-0.41504573822021484 l-1.8872120022773744,-0.41504573822021484 c0,0 -9.436060011386871,-0.10376143455505371 -12.322384250164031,-6.329447507858276 C727.7992574691773,72.93283267738616 724.2468584060668,67.12219234230315 718.3631974577904,66.08457799675261 L718.3631974577904,66.08457799675261 z" id="svg_34"/>
						
							<linearGradient id="SVGID_4_" gradientUnits="userSpaceOnUse" x1="672.5499877929688" y1="286.1286926269531" x2="687.1500244140625" y2="286.1286926269531" gradientTransform="matrix(1 0 0 -1 0 356)" transform="translate(-11.71875,-2.34375) translate(-2.21875,1.8562498092651367) scale(1.1101247072219849,1.037614345550537) translate(2.21875,-1.8562498092651367) ">
							<stop offset="0" style="stop-color:#1B75B9"/>
							<stop offset="1" style="stop-color:#2B388D"/>
						</linearGradient>
						<path class="st18" d="M740.7877165436744,71.37641115906035 c-2.3312618851661684,-4.046695947647095 -4.4404988288879395,-8.300914764404297 -6.2166983604431145,-12.658895015716553 c-0.222024941444397,0.41504573822021484 -0.444049882888794,0.7263300418853762 -0.7770872950553896,1.1413757801055908 L735.4591179490089,56.642287452242726 c0,0 3.9964489459991457,10.376143455505371 6.327710831165314,12.762656450271606 s8.214922833442689,5.499356031417847 8.214922833442689,5.499356031417847 s-2.109236943721771,6.121924638748169 -2.109236943721771,7.885869026184082 c0,1.1413757801055908 -1.1101247072219849,0.31128430366516124 -1.9982244729995728,-0.41504573822021484 l0.7770872950553896,0.20752286911010742 C747.3374523162843,75.83815284492766 740.7877165436744,71.37641115906035 740.7877165436744,71.37641115906035 z" id="svg_35"/>
					</g>
					<g id="svg_36">
						
							<linearGradient id="SVGID_5_" gradientUnits="userSpaceOnUse" x1="658.7000122070312" y1="287.45001220703125" x2="670.8800048828125" y2="287.45001220703125" gradientTransform="matrix(1 0 0 -1 0 356)" transform="translate(-11.71875,-2.34375) translate(-2.21875,1.8562498092651367) scale(1.1101247072219849,1.037614345550537) translate(2.21875,-1.8562498092651367) ">
							<stop offset="0" style="stop-color:#1B75B9"/>
							<stop offset="1" style="stop-color:#2B388D"/>
						</linearGradient>
						<path class="st19" d="M724.1358459353446,66.18833943130767 c0.444049882888794,-0.6225686073303225 1.2211371779441835,-1.037614345550537 1.9982244729995728,-1.1413757801055908 c1.1101247072219849,-0.20752286911010742 3.7744240045547484,-1.7639443874359133 5.772648477554322,-3.527888774871826 c-2.775311768054962,1.2451372146606445 -6.438723301887512,1.037614345550537 -8.658972716331482,2.905320167541504 c-1.3321496486663817,1.2451372146606445 -3.1083491802215573,0.6225686073303225 -4.773536241054535,1.6601829528808594 c5.772648477554322,1.037614345550537 9.325047540664674,6.848254680633545 13.321496486663818,9.649813413619995 c-0.1110124707221985,-0.31128430366516124 -0.33303741216659555,-0.7263300418853762 -0.444049882888794,-1.037614345550537 C728.6873572349548,67.84852238418853 725.6900205254556,68.15980668785369 724.1358459353446,66.18833943130767 z" id="svg_37"/>
						<path class="st20" d="M803.2877375602723,66.18833943130767 c-0.444049882888794,-0.6225686073303225 -1.2211371779441835,-1.037614345550537 -1.9982244729995728,-1.1413757801055908 c-1.1101247072219849,-0.20752286911010742 -3.7744240045547484,-1.7639443874359133 -5.772648477554322,-3.527888774871826 c2.775311768054962,1.2451372146606445 6.438723301887512,1.037614345550537 8.658972716331482,2.905320167541504 c1.3321496486663817,1.2451372146606445 3.1083491802215573,0.6225686073303225 4.773536241054535,1.6601829528808594 c-5.772648477554322,1.037614345550537 -9.325047540664674,6.848254680633545 -13.321496486663818,9.649813413619995 c0.1110124707221985,-0.31128430366516124 0.33303741216659555,-0.7263300418853762 0.444049882888794,-1.037614345550537 C798.7362262606621,67.84852238418853 801.7335629701615,68.15980668785369 803.2877375602723,66.18833943130767 z" id="svg_38"/>
					</g>
					
						<linearGradient id="SVGID_6_" gradientUnits="userSpaceOnUse" x1="704.4500122070312" y1="295.45001220703125" x2="716.8101196289062" y2="295.45001220703125" gradientTransform="matrix(1 0 0 -1 0 356)" transform="translate(-11.71875,-2.34375) translate(-2.21875,1.8562498092651367) scale(1.1101247072219849,1.037614345550537) translate(2.21875,-1.8562498092651367) ">
						<stop offset="0" style="stop-color:#1B75B9"/>
						<stop offset="1" style="stop-color:#2B388D"/>
					</linearGradient>
					<path class="st21" d="M769.3179215192795,54.25577445747649 c0,0 2.9973367094993595,10.06485915184021 4.773536241054535,10.272382020950317 s8.992010128498077,1.8677058219909668 8.992010128498077,1.8677058219909668 s-5.772648477554322,-1.3488986492156982 -7.770872950553894,-3.3203659057617188 S769.3179215192795,54.25577445747649 769.3179215192795,54.25577445747649 z" id="svg_39"/>
					
						<linearGradient id="SVGID_7_" gradientUnits="userSpaceOnUse" x1="681.97998046875" y1="295.45001220703125" x2="694.3400268554688" y2="295.45001220703125" gradientTransform="matrix(1 0 0 -1 0 356)" transform="translate(-11.71875,-2.34375) translate(-2.21875,1.8562498092651367) scale(1.1101247072219849,1.037614345550537) translate(2.21875,-1.8562498092651367) ">
						<stop offset="0" style="stop-color:#1B75B9"/>
						<stop offset="1" style="stop-color:#2B388D"/>
					</linearGradient>
					<path class="st22" d="M757.9946495056151,54.25577445747649 c0,0 -2.9973367094993595,10.06485915184021 -4.773536241054535,10.272382020950317 s-8.992010128498077,1.8677058219909668 -8.992010128498077,1.8677058219909668 s5.772648477554322,-1.3488986492156982 7.770872950553894,-3.3203659057617188 S757.9946495056151,54.25577445747649 757.9946495056151,54.25577445747649 z" id="svg_40"/>
					
						<linearGradient id="SVGID_8_" gradientUnits="userSpaceOnUse" x1="696.7000122070312" y1="292.3500061035156" x2="702.1699829101562" y2="292.3500061035156" gradientTransform="matrix(1 0 0 -1 0 356)" transform="translate(-11.71875,-2.34375) translate(-2.21875,1.8562498092651367) scale(1.1101247072219849,1.037614345550537) translate(2.21875,-1.8562498092651367) ">
						<stop offset="0" style="stop-color:#1B75B9"/>
						<stop offset="1" style="stop-color:#2B388D"/>
					</linearGradient>
					<path class="st23" d="M763.6562855124473,50.416601378939504 c-0.1110124707221985,-3.942934513092041 0,-6.952016115188599 0,-6.952016115188599 S763.8783104538918,46.47366686584746 763.6562855124473,50.416601378939504 L763.6562855124473,50.416601378939504 c0.222024941444397,6.018163204193115 -0.1110124707221985,14.422839403152466 2.9973367094993595,18.262012481689453 c0,0 -2.3312618851661684,9.753574848175049 -2.9973367094993595,14.941646575927734 c-0.7770872950553896,-5.1880717277526855 -2.9973367094993595,-14.941646575927734 -2.9973367094993595,-14.941646575927734 C763.8783104538918,64.83944078209197 763.434260571003,56.43476458313262 763.6562855124473,50.416601378939504 z" id="svg_41"/>
					<g id="svg_42">
						<path class="st17" d="M755.9964250326157,32.67339607002532 c0.5550623536109924,-1.3488986492156982 0.222024941444397,-9.753574848175049 0.222024941444397,-9.753574848175049 c-0.5550623536109924,-0.9338529109954834 -0.888099765777588,-1.8677058219909668 -1.1101247072219849,-2.905320167541504 c-0.1110124707221985,-0.6225686073303225 0.222024941444397,-1.3488986492156982 0.888099765777588,-1.5564215183258057 c0,0 -0.33303741216659555,-5.084310293197632 -0.444049882888794,-5.810640335083008 s-0.1110124707221985,-3.63165020942688 0.5550623536109924,-4.46174168586731 c0.9991122364997864,-0.7263300418853762 2.109236943721771,-1.1413757801055908 3.3303741216659546,-1.452660083770752 l-1.5541745901107786,-0.6225686073303225 c2.3312618851661684,-0.10376143455505371 4.773536241054535,-0.10376143455505371 7.104798126220704,0.10376143455505371 c-8.769985187053681,-1.8677058219909668 -8.658972716331482,0.10376143455505371 -8.769985187053681,0.7263300418853762 s-1.5541745901107786,3.3203659057617188 -4.107461416721344,3.7354116439819336 c-0.9991122364997864,0.10376143455505371 -2.109236943721771,0 -3.1083491802215573,-0.20752286911010742 c-1.776199531555176,-0.8300914764404297 -3.3303741216659546,-1.3488986492156982 -3.219361650943756,-1.2451372146606445 s6.438723301887512,-1.452660083770752 6.438723301887512,-1.452660083770752 l-5.217586123943329,-3.63165020942688 c1.6651870608329773,0.31128430366516124 3.3303741216659546,0.31128430366516124 4.995561182498932,0.10376143455505371 c2.775311768054962,-0.41504573822021484 15.541745901107788,1.037614345550537 16.651870608329773,1.6601829528808594 s3.6634115338325497,4.980548858642578 3.6634115338325497,4.980548858642578 v5.706878900527954 l1.3321496486663817,1.2451372146606445 c0.1110124707221985,0.8300914764404297 0.1110124707221985,1.6601829528808594 -0.1110124707221985,2.3865129947662354 c-0.222024941444397,0.7263300418853762 -0.888099765777588,2.490274429321289 -0.888099765777588,2.490274429321289 v2.6977972984313965 c0.222024941444397,1.8677058219909668 0.5550623536109924,3.63165020942688 0.9991122364997864,5.499356031417847 c0.1110124707221985,0.20752286911010742 4.329486358165741,4.876787424087524 4.884548711776734,4.980548858642578 c-1.3321496486663817,2.5940358638763428 -6.327710831165314,0.6225686073303225 -9.103022599220274,2.178990125656128 c-3.1083491802215573,1.6601829528808594 -6.771760714054107,1.9714672565460205 -10.102134835720062,0.9338529109954834 c-2.775311768054962,-0.8300914764404297 -5.328598594665527,-2.075228691101074 -7.548848009109497,-3.7354116439819336 C753.7761756181717,34.43734045746123 755.8854125618934,33.29596467735564 755.9964250326157,32.67339607002532 z" id="svg_43"/>
						<path class="st20" d="M752.1109885573387,10.88349481346404 c2.6642992973327635,-0.41504573822021484 3.9964489459991457,-3.216604471206665 4.107461416721344,-3.7354116439819336 s0,-2.5940358638763428 8.769985187053681,-0.7263300418853762 c-2.3312618851661684,-0.20752286911010742 -4.773536241054535,-0.31128430366516124 -7.104798126220704,-0.10376143455505371 l1.5541745901107786,0.5188071727752686 c-1.2211371779441835,0.20752286911010742 -2.3312618851661684,0.7263300418853762 -3.219361650943756,1.452660083770752 c-0.7770872950553896,0.8300914764404297 -0.7770872950553896,3.7354116439819336 -0.5550623536109924,4.46174168586731 s0.444049882888794,5.810640335083008 0.444049882888794,5.810640335083008 c-0.6660748243331911,0.31128430366516124 -0.9991122364997864,0.9338529109954834 -0.888099765777588,1.5564215183258057 c0.222024941444397,1.037614345550537 0.5550623536109924,1.9714672565460205 1.1101247072219849,2.905320167541504 c0,0 0.444049882888794,8.40467619895935 -0.222024941444397,9.753574848175049 c0.33303741216659555,-1.037614345550537 -0.1110124707221985,-9.131006240844727 -0.444049882888794,-9.338529109954834 c-0.5550623536109924,-0.7263300418853762 -0.9991122364997864,-1.452660083770752 -1.3321496486663817,-2.2827515602111816 c0,-0.31128430366516124 0.1110124707221985,-2.5940358638763428 0.1110124707221985,-2.5940358638763428 l1.1101247072219849,-0.6225686073303225 c0,-1.2451372146606445 -0.222024941444397,-2.3865129947662354 -0.5550623536109924,-3.63165020942688 c-0.33303741216659555,-1.037614345550537 -3.4413865923881533,-2.5940358638763428 -5.883660948276519,-3.63165020942688 C750.001751613617,10.88349481346404 751.111876320839,10.987256248019094 752.1109885573387,10.88349481346404 z" id="svg_44"/>
					</g>
					<g id="svg_45">
						<path class="st16" d="M718.4742099285127,66.08457799675261 c1.6651870608329773,-0.9338529109954834 3.4413865923881533,-0.31128430366516124 4.773536241054535,-1.6601829528808594 c2.3312618851661684,-1.8677058219909668 5.883660948276519,-1.6601829528808594 8.658972716331482,-2.905320167541504 c1.1101247072219849,-0.8300914764404297 1.8872120022773744,-1.7639443874359133 2.553286826610565,-2.80155873298645 c1.776199531555176,4.357980251312256 3.7744240045547484,8.612199068069458 6.2166983604431145,12.658895015716553 c0,0 6.549735772609711,4.46174168586731 6.105685889720917,11.2062349319458 l-2.775311768054962,-0.5188071727752686 c0,0 -9.436060011386871,-0.10376143455505371 -12.322384250164031,-6.329447507858276 C727.7992574691773,72.93283267738616 724.2468584060668,67.12219234230315 718.4742099285127,66.08457799675261 z" id="svg_46"/>
						<path class="st16" d="M786.6358669519425,71.37641115906035 c2.3312618851661684,-4.046695947647095 4.4404988288879395,-8.300914764404297 6.2166983604431145,-12.658895015716553 c0.6660748243331911,1.1413757801055908 1.5541745901107786,2.075228691101074 2.6642992973327635,2.905320167541504 c2.775311768054962,1.2451372146606445 6.438723301887512,1.037614345550537 8.658972716331482,2.905320167541504 c1.3321496486663817,1.2451372146606445 3.1083491802215573,0.6225686073303225 4.773536241054535,1.6601829528808594 c-5.772648477554322,1.037614345550537 -9.325047540664674,6.848254680633545 -13.321496486663818,9.649813413619995 c-2.775311768054962,6.225686073303223 -12.322384250164031,6.329447507858276 -12.322384250164031,6.329447507858276 l-2.775311768054962,0.5188071727752686 C780.0861311793328,75.83815284492766 786.6358669519425,71.37641115906035 786.6358669519425,71.37641115906035 z" id="svg_47"/>
						
							<linearGradient id="SVGID_9_" gradientUnits="userSpaceOnUse" x1="652.22998046875" y1="292.5" x2="680.06640625" y2="292.5" gradientTransform="matrix(1 0 0 -1 0 356)" transform="translate(-11.71875,-2.34375) translate(-2.21875,1.8562498092651367) scale(1.1101247072219849,1.037614345550537) translate(2.21875,-1.8562498092651367) ">
							<stop offset="0" style="stop-color:#1B75B9"/>
							<stop offset="1" style="stop-color:#2B388D"/>
						</linearGradient>
						<path class="st24" d="M732.3507687687875,86.31805773498809 c-2.775311768054962,-3.0090816020965576 -8.436947774887084,-3.3203659057617188 -13.21048401594162,-6.952016115188599 c-7.881885421276092,-5.9144017696380615 -6.105685889720917,-9.546051979064941 -7.326823067665099,-11.309996366500854 s-0.222024941444397,-2.5940358638763428 0,-2.6977972984313965 s0.222024941444397,-0.5188071727752686 2.2202494144439697,-3.942934513092041 c1.9982244729995728,-3.216604471206665 4.218473887443542,-6.225686073303223 6.8827731847763065,-9.027244806289673 c0.5550623536109924,-2.6977972984313965 1.6651870608329773,-5.291833162307739 3.4413865923881533,-7.574584722518921 c3.885436475276947,-5.395594596862793 12.211371779441833,-5.9144017696380615 14.986683547496796,-7.055777549743652 c0.888099765777588,-0.31128430366516124 1.8872120022773744,-0.6225686073303225 2.775311768054962,-0.9338529109954834 c-6.327710831165314,2.2827515602111816 -15.43073343038559,6.018163204193115 -16.87389554977417,8.819721937179565 c-1.3321496486663817,2.3865129947662354 -2.3312618851661684,4.876787424087524 -2.9973367094993595,7.470823287963867 l1.1101247072219849,4.876787424087524 c0,0 -1.2211371779441835,-5.499356031417847 -4.995561182498932,-0.41504573822021484 s-6.549735772609711,7.885869026184082 -6.105685889720917,9.23476767539978 s0.6660748243331911,6.6407318115234375 4.662523770332337,9.649813413619995 s8.436947774887084,4.150457382202148 11.989346837997438,6.329447507858276 c2.442274355888367,1.452660083770752 6.8827731847763065,4.980548858642578 9.658084952831267,7.159538984298706 C736.1251927733422,89.01585503341948 733.5719059467315,87.56319494964873 732.3507687687875,86.31805773498809 z" id="svg_48"/>
					</g>
					<g id="svg_49">
						<path class="st16" d="M732.0177313566207,61.622836310885305 c1.1101247072219849,-0.8300914764404297 1.9982244729995728,-1.7639443874359133 2.553286826610565,-2.905320167541504 c1.776199531555176,4.357980251312256 3.7744240045547484,8.612199068069458 6.2166983604431145,12.658895015716553 c0,0 6.549735772609711,4.46174168586731 6.105685889720917,11.2062349319458 l-2.775311768054962,-0.5188071727752686 c0,0 -9.436060011386871,-0.10376143455505371 -12.322384250164031,-6.329447507858276 c-3.9964489459991457,-2.80155873298645 -7.548848009109497,-8.612199068069458 -13.321496486663818,-9.649813413619995 c1.6651870608329773,-0.9338529109954834 3.4413865923881533,-0.31128430366516124 4.773536241054535,-1.6601829528808594 C725.5790080547333,62.55668922188079 729.1314071178435,62.764212090990895 732.0177313566207,61.622836310885305 z" id="svg_50"/>
						<path class="st16" d="M786.6358669519425,71.37641115906035 c2.3312618851661684,-4.046695947647095 4.4404988288879395,-8.300914764404297 6.2166983604431145,-12.658895015716553 c0.6660748243331911,1.1413757801055908 1.5541745901107786,2.075228691101074 2.6642992973327635,2.905320167541504 c2.775311768054962,1.2451372146606445 6.438723301887512,1.037614345550537 8.658972716331482,2.905320167541504 c1.3321496486663817,1.2451372146606445 3.1083491802215573,0.6225686073303225 4.773536241054535,1.6601829528808594 c-5.772648477554322,1.037614345550537 -9.325047540664674,6.848254680633545 -13.321496486663818,9.649813413619995 c-2.775311768054962,6.225686073303223 -12.322384250164031,6.329447507858276 -12.322384250164031,6.329447507858276 l-2.775311768054962,0.5188071727752686 C780.0861311793328,75.83815284492766 786.6358669519425,71.37641115906035 786.6358669519425,71.37641115906035 z" id="svg_51"/>
						<path class="st20" d="M725.6900205254556,213.21829219581878 c0.33303741216659555,-1.5564215183258057 2.109236943721771,-1.7639443874359133 3.3303741216659546,-1.8677058219909668 c0.444049882888794,0 0.7770872950553896,-0.10376143455505371 1.2211371779441835,-0.20752286911010742 c0.6660748243331911,-0.31128430366516124 3.3303741216659546,-2.905320167541504 3.885436475276947,-8.300914764404297 c0.222024941444397,-2.2827515602111816 -0.888099765777588,-9.442290544509888 -1.9982244729995728,-16.18678379058838 c-0.888099765777588,-6.018163204193115 -1.776199531555176,-11.621280670166016 -1.776199531555176,-13.69650936126709 c0.1110124707221985,-4.357980251312256 4.662523770332337,-13.281463623046875 7.659860479831696,-18.1582510471344 c0.7770872950553896,-3.4241273403167725 0.9991122364997864,-6.952016115188599 0.7770872950553896,-10.479904890060425 c-0.1110124707221985,-0.9338529109954834 -0.444049882888794,-1.9714672565460205 -0.7770872950553896,-2.905320167541504 c-1.2211371779441835,-3.63165020942688 -2.9973367094993595,-9.131006240844727 -0.6660748243331911,-20.12971830368042 c0.7770872950553896,-4.357980251312256 2.109236943721771,-8.612199068069458 3.7744240045547484,-12.762656450271606 c1.6651870608329773,-3.942934513092041 2.886324238777161,-7.989630460739136 3.6634115338325497,-12.140087842941284 c0.1110124707221985,-0.7263300418853762 0.33303741216659555,-1.3488986492156982 0.5550623536109924,-2.075228691101074 s0.444049882888794,-1.452660083770752 0.6660748243331911,-2.178990125656128 h0.1110124707221985 c0,0.10376143455505371 -1.1101247072219849,9.546051979064941 -0.444049882888794,11.828803539276123 s4.662523770332337,5.291833162307739 7.548848009109497,6.018163204193115 l0.6660748243331911,0.20752286911010742 H753.2211132645607 c-0.222024941444397,0 -6.327710831165314,-0.31128430366516124 -7.992897891998291,-1.2451372146606445 c-0.1110124707221985,-0.10376143455505371 -0.222024941444397,-0.10376143455505371 -0.33303741216659555,-0.10376143455505371 c-1.776199531555176,0 -5.217586123943329,6.6407318115234375 -6.438723301887512,13.69650936126709 c-1.3321496486663817,7.782107591629028 1.1101247072219849,20.025956869125366 1.8872120022773744,22.204946994781494 s-0.222024941444397,8.508437633514404 -1.2211371779441835,10.06485915184021 s-8.214922833442689,14.630362272262573 -7.770872950553894,18.78081965446472 c0.7770872950553896,7.574584722518921 3.3303741216659546,11.828803539276123 7.770872950553894,13.073940753936768 l0.33303741216659555,0.10376143455505371 h-0.33303741216659555 c-0.1110124707221985,0 -0.222024941444397,0 -0.444049882888794,0 c-1.1101247072219849,0 -3.885436475276947,-0.41504573822021484 -6.771760714054107,-3.942934513092041 c0.5550623536109924,2.3865129947662354 4.218473887443542,17.743205308914185 3.1083491802215573,21.893662691116333 c-0.222024941444397,0.6225686073303225 -0.33303741216659555,1.2451372146606445 -0.444049882888794,1.7639443874359133 c-0.888099765777588,3.3203659057617188 -1.4431621193885804,5.395594596862793 -3.9964489459991457,5.9144017696380615 l-0.33303741216659555,0.10376143455505371 c-1.4431621193885804,0.31128430366516124 -2.2202494144439697,0.41504573822021484 -2.442274355888367,0.8300914764404297 c0,0.5188071727752686 0.1110124707221985,1.037614345550537 0.444049882888794,1.3488986492156982 c0,0.10376143455505371 0.1110124707221985,0.10376143455505371 0.1110124707221985,0.20752286911010742 l0.1110124707221985,0.20752286911010742 l-0.222024941444397,-0.10376143455505371 C727.3552075862885,214.56719084503447 726.4671078205108,213.94462223770415 725.6900205254556,213.21829219581878 L725.6900205254556,213.21829219581878 L725.6900205254556,213.21829219581878 L725.6900205254556,213.21829219581878 z" id="svg_52"/>
					</g>
				</g>
				<g id="svg_53">
					<path class="st20" d="M603.6873152017592,73.9704470229367 c1.5541745901107786,1.2451372146606445 2.886324238777161,2.6977972984313965 3.885436475276947,4.254218816757202 c1.9982244729995728,3.3203659057617188 2.9973367094993595,7.055777549743652 2.886324238777161,10.791189193725586 c-22.202494144439697,3.0090816020965576 -45.62612546682358,5.1880717277526855 -45.62612546682358,5.1880717277526855 c3.885436475276947,-0.8300914764404297 16.98490802049637,-15.460453748703003 21.647431790828705,-19.092103958129883 C588.0345568299294,74.07420845749175 594.9173300147056,73.76292415382659 603.6873152017592,73.9704470229367 z" id="svg_54"/>
					<path class="st20" d="M680.0638950586319,159.46986909630095 c0,0 21.536419320106504,13.592747926712036 35.857028043270105,11.102473497390747 c0,0 -22.86856896877289,-39.74062943458557 -20.53730708360672,-31.543476104736328 C699.7131023764609,153.45170589210784 689.9440049529076,157.91344757797515 680.0638950586319,159.46986909630095 z" id="svg_55"/>
					<path class="st20" d="M636.8800439476968,128.2376772952298 c0,0 8.10391036272049,-16.394306659698486 37.96626498699189,-23.346322774887085 s-47.95738735198975,0.41504573822021484 -48.512449705600744,4.565503120422363 S629.4422084093094,124.50226565124785 636.8800439476968,128.2376772952298 z" id="svg_56"/>
					
						<linearGradient id="SVGID_10_" gradientUnits="userSpaceOnUse" x1="473.2001037597656" y1="255.65890502929688" x2="724.9191284179688" y2="255.65890502929688" gradientTransform="matrix(1 0 0 -1 0 356)" transform="translate(-11.71875,-2.34375) translate(-2.21875,1.8562498092651367) scale(1.1101247072219849,1.037614345550537) translate(2.21875,-1.8562498092651367) ">
						<stop offset="0" style="stop-color:#F9AE3B"/>
						<stop offset="0.86" style="stop-color:#FF911E"/>
					</linearGradient>
					<path class="st25" d="M791.9644655466079,37.861467797778005 c0,0 1.776199531555176,26.977972984313965 -27.19805532693863,44.306132555007935 c-47.95738735198975,28.53439450263977 -51.287761473655706,71.491628408432 -48.62346217632293,84.87685346603394 s-10.99023460149765,-15.771738052368164 -31.083491802215576,-22.4124698638916 c-17.761995315551758,-5.9144017696380615 -18.76110755205154,9.131006240844727 -18.76110755205154,9.131006240844727 c-3.3303741216659546,-9.027244806289673 -7.437835538387299,-17.743205308914185 -12.322384250164031,-26.04412007331848 c-8.436947774887084,-14.52660083770752 -25.976918148994443,-23.657607078552246 -26.642992973327637,-15.771738052368164 s9.769097423553468,16.394306659698486 9.769097423553468,16.394306659698486 s-20.09325720071793,-8.508437633514404 -27.864130151271823,-20.025956869125366 s6.438723301887512,-27.289257287979126 -9.769097423553468,-32.16604471206665 s-15.541745901107788,15.149169445037842 -34.41386592388153,18.1582510471344 s-41.51866405010223,-9.131006240844727 -52.50889865159988,-23.657607078552246 c0,0 46.736250174045566,1.8677058219909668 64.16520807743072,-4.876787424087524 s42.184738874435425,-21.78990125656128 73.93430550098418,-22.4124698638916 s57.72648477554321,2.3865129947662354 75.93252997398378,-3.0090816020965576 S759.5488240957261,27.589085776827687 791.9644655466079,37.861467797778005 z" id="svg_57"/>
					<path class="st20" d="M787.8570041298867,39.31412788154876 c0,0 -1.5541745901107786,20.544764041900635 -38.41031486988068,40.570720911026 c-28.308180034160614,15.35669231414795 -75.26645514965057,58.002641916275024 -80.59505374431609,65.99227237701416 c0,0 21.647431790828705,-35.48641061782837 63.27710831165314,-58.832733392715454 C784.748654949665,57.57614036323821 783.7495427131653,44.91724534752166 787.8570041298867,39.31412788154876 z" id="svg_58"/>
					<path class="st20" d="M779.3090438842773,38.172752101443166 c0,0 -13.21048401594162,38.184207916259766 -79.59594150781632,50.32429575920105 c-61.16787136793137,11.102473497390747 -72.38013091087342,20.544764041900635 -72.38013091087342,20.544764041900635 s17.539970374107362,-15.564215183258057 60.72382148504258,-21.78990125656128 C743.1189784288406,79.36604161979949 765.765522456169,59.962653358004445 779.3090438842773,38.172752101443166 z" id="svg_59"/>
					<path class="st20" d="M593.0301180124284,74.07420845749175 c0,0 51.287761473655706,2.075228691101074 69.60481914281846,0.6225686073303225 s56.94939748048782,2.3865129947662354 96.91388694047927,-34.9676034450531 c0,0 -37.18917769193649,32.37356758117676 -90.03111375570296,32.37356758117676 C669.0736604571343,71.99897976639068 593.0301180124284,74.07420845749175 593.0301180124284,74.07420845749175 z" id="svg_60"/>
					<g id="svg_61">
						<path class="st20" d="M628.5541086435319,60.273937661669606 c-54.39611065387726,5.084310293197632 -53.841048300266266,15.149169445037842 -112.89968272447587,10.376143455505371 c10.32415977716446,0.31128430366516124 46.51422523260116,0.7263300418853762 61.38989630937576,-4.980548858642578 c17.539970374107362,-6.6407318115234375 42.184738874435425,-21.78990125656128 73.93430550098418,-22.4124698638916 s57.72648477554321,2.3865129947662354 75.93252997398378,-3.0090816020965576 c4.329486358165741,-1.3488986492156982 8.547960245609284,-2.6977972984313965 12.766434133052826,-3.942934513092041 C734.2379807710647,41.9081637454251 724.8019207596778,51.24669285537993 628.5541086435319,60.273937661669606 z" id="svg_62"/>
					</g>
				</g>
			</g>
		</g>
		<g id="svg_63">
			<g id="svg_64">
				
					<linearGradient id="SVGID_11_" gradientUnits="userSpaceOnUse" x1="717.8300170898438" y1="188.8300018310547" x2="717.8300170898438" y2="206.02999877929688" gradientTransform="matrix(1 0 0 -1 -321.53 213.43)" transform="translate(-11.71875,-2.34375) translate(-2.21875,1.8562498092651367) scale(1.1101247072219849,1.037614345550537) translate(2.21875,-1.8562498092651367) ">
					<stop offset="0" style="stop-color:#C6182A"/>
					<stop offset="1" style="stop-color:#EC9046"/>
				</linearGradient>
				<polygon class="st26" points="427.17747320213675,5.176616011890701 421.6268496660268,14.100099284670705 427.17747320213675,23.023583052223785 432.7280967382467,14.100099284670705 " id="svg_65"/>
				
					<linearGradient id="SVGID_12_" gradientUnits="userSpaceOnUse" x1="408.20001220703125" y1="265.3800048828125" x2="408.20001220703125" y2="334.3800048828125" gradientTransform="matrix(1 0 0 -1 0 356)" transform="translate(-11.71875,-2.34375) translate(-2.21875,1.8562498092651367) scale(1.1101247072219849,1.037614345550537) translate(2.21875,-1.8562498092651367) ">
					<stop offset="0" style="stop-color:#C6182A"/>
					<stop offset="1" style="stop-color:#EC9046"/>
				</linearGradient>
				<path class="st27" d="M456.1517416119575,33.918533284685964 l-6.993785655498504,-11.2062349319458 l-3.552399063110352,5.706878900527954 l6.993785655498504,11.2062349319458 L456.1517416119575,33.918533284685964 zM452.5993425488472,39.62541218521392 l-3.4413865923881533,5.499356031417847 l-6.993785655498504,-11.2062349319458 l3.4413865923881533,-5.499356031417847 l-5.217586123943329,-8.40467619895935 l-32.74867886304855,52.710808753967285 l14.320608723163605,18.884581089019775 h36.8561402797699 l14.320608723163605,-18.884581089019775 L452.5993425488472,39.62541218521392 zM432.61709781885145,83.20521469833648 l-9.769097423553468,-15.66797661781311 l9.769097423553468,-15.66797661781311 l9.769097423553468,15.564215183258057 L432.61709781885145,83.20521469833648 z" id="svg_66"/>
				
					<linearGradient id="SVGID_13_" gradientUnits="userSpaceOnUse" x1="700.0800170898438" y1="160.66000366210938" x2="700.0800170898438" y2="174.6199951171875" gradientTransform="matrix(1 0 0 -1 -321.53 213.43)" transform="translate(-11.71875,-2.34375) translate(-2.21875,1.8562498092651367) scale(1.1101247072219849,1.037614345550537) translate(2.21875,-1.8562498092651367) ">
					<stop offset="0" style="stop-color:#C6182A"/>
					<stop offset="1" style="stop-color:#EC9046"/>
				</linearGradient>
				<polygon class="st28" points="407.4172669649124,37.75770557158603 402.9767681360245,45.02100599043979 407.4172669649124,52.28430640929355 411.96878504018605,45.02100599043979 " id="svg_67"/>
				
					<linearGradient id="SVGID_14_" gradientUnits="userSpaceOnUse" x1="737.6300048828125" y1="203.14999389648438" x2="737.6300048828125" y2="209.24000549316406" gradientTransform="matrix(1 0 0 -1 -321.53 213.43)" transform="translate(-11.71875,-2.34375) translate(-2.21875,1.8562498092651367) scale(1.1101247072219849,1.037614345550537) translate(2.21875,-1.8562498092651367) ">
					<stop offset="0" style="stop-color:#C6182A"/>
					<stop offset="1" style="stop-color:#EC9046"/>
				</linearGradient>
				<polygon class="st29" points="449.15796273212254,1.8562498092651367 447.1597179321325,4.969092845916748 449.15796273212254,8.185697712941874 451.1561736537951,4.969092845916748 " id="svg_68"/>
				
					<linearGradient id="SVGID_15_" gradientUnits="userSpaceOnUse" x1="759.22998046875" y1="155.52999877929688" x2="759.22998046875" y2="166.50999450683594" gradientTransform="matrix(1 0 0 -1 -321.53 213.43)" transform="translate(-11.71875,-2.34375) translate(-2.21875,1.8562498092651367) scale(1.1101247072219849,1.037614345550537) translate(2.21875,-1.8562498092651367) ">
					<stop offset="0" style="stop-color:#C6182A"/>
					<stop offset="1" style="stop-color:#EC9046"/>
				</linearGradient>
				<polygon class="st30" points="473.1366631837809,46.162384145456144 469.58425056934357,51.8692630459841 473.1366631837809,57.57614194651205 476.6890419199008,51.8692630459841 " id="svg_69"/>
			</g>
			<g id="svg_70">
				<polygon class="st31" points="426.28938698768616,97.00548707743246 432.7280967382467,97.00548707743246 434.72634153823674,102.71236597796042 429.5087418629664,106.24025633610609 424.2911760660136,102.71236597796042 " id="svg_71"/>
				<polygon class="st31" points="447.60379491767526,97.00548707743246 454.0425046682358,97.00548707743246 455.92973022184015,102.71236597796042 450.7121305465698,106.24025633610609 445.6055501176852,102.71236597796042 " id="svg_72"/>
				<polygon class="st31" points="465.6988140940666,93.27007701672437 469.25122670850396,88.28952499153411 475.4678979662931,90.05346621242234 475.5789172126788,95.96787273188193 469.58425056934357,98.043101422983 " id="svg_73"/>
				<polygon class="st31" points="414.9661014226949,92.95878954651153 411.30270344018936,87.97823752132126 405.08599830408275,89.7421866585787 404.97497905769706,95.76034511295029 411.080664947418,97.73181395277015 " id="svg_74"/>
			</g>
		</g>
	</g>
</g></g></svg>